<svg xmlns="http://www.w3.org/2000/svg" xmlns:xlink="http://www.w3.org/1999/xlink" version="1.1" baseProfile="full" width="900" height="500" style="position: absolute; left: 0px; top: 0px;"><rect width="900" height="500" x="0" y="0" fill="#fff"></rect><g><path d="M90 430.5L810 430.5" fill="transparent" stroke="grey" stroke-width="0.5"></path><path d="M90 377.5L810 377.5" fill="transparent" stroke="grey" stroke-width="0.5"></path><path d="M90 324.5L810 324.5" fill="transparent" stroke="grey" stroke-width="0.5"></path><path d="M90 271.5L810 271.5" fill="transparent" stroke="grey" stroke-width="0.5"></path><path d="M90 218.5L810 218.5" fill="transparent" stroke="grey" stroke-width="0.5"></path><path d="M90 165.5L810 165.5" fill="transparent" stroke="grey" stroke-width="0.5"></path><path d="M90 113.5L810 113.5" fill="transparent" stroke="grey" stroke-width="0.5"></path><path d="M90 60.5L810 60.5" fill="transparent" stroke="grey" stroke-width="0.5"></path><path d="M90.5 60L90.5 430" fill="transparent" stroke="grey" stroke-width="0.5"></path><path d="M162.5 60L162.5 430" fill="transparent" stroke="grey" stroke-width="0.5"></path><path d="M234.5 60L234.5 430" fill="transparent" stroke="grey" stroke-width="0.5"></path><path d="M306.5 60L306.5 430" fill="transparent" stroke="grey" stroke-width="0.5"></path><path d="M378.5 60L378.5 430" fill="transparent" stroke="grey" stroke-width="0.5"></path><path d="M450.5 60L450.5 430" fill="transparent" stroke="grey" stroke-width="0.5"></path><path d="M522.5 60L522.5 430" fill="transparent" stroke="grey" stroke-width="0.5"></path><path d="M594.5 60L594.5 430" fill="transparent" stroke="grey" stroke-width="0.5"></path><path d="M666.5 60L666.5 430" fill="transparent" stroke="grey" stroke-width="0.5"></path><path d="M738.5 60L738.5 430" fill="transparent" stroke="grey" stroke-width="0.5"></path><path d="M810.5 60L810.5 430" fill="transparent" stroke="grey" stroke-width="0.5"></path><g clip-path="url(#zr0-c0)"><path d="M126 195.0794L198 165.7143L270 174.8276L342 127.9592L414 127.9592L486 127.9592L558 106.9841L630 125.671L702 125.0549L774 110.3987L774 430L702 430L630 430L558 430L486 430L414 430L342 430L270 430L198 430L126 430Z" fill="#4E2A5C" fill-opacity="0.5"></path></g><g clip-path="url(#zr0-c1)"><path d="M126 418.254L198 409.6703L270 411.7734L342 430L414 430L486 430L558 415.3175L630 413.9827L702 430L774 430L702 430L630 430L558 430L486 430L414 430L342 430L270 430L198 430L126 430Z" fill="#C54E83" fill-opacity="0.5"></path></g><g clip-path="url(#zr0-c2)"><path d="M126 289.0476L198 328.3517L270 302.4138L342 373.3673L414 373.3673L486 373.3673L558 371.2698L630 365.9307L702 369.011L774 343.9535L774 430L702 430L630 430L558 430L486 430L414 430L342 430L270 430L198 430L126 430Z" fill="#4EBABC" fill-opacity="0.5"></path></g><g clip-path="url(#zr0-c3)"><path d="M126 289.0476L198 287.6923L270 302.4138L342 260.1021L414 260.1021L486 260.1021L558 297.8571L630 285.8441L702 267.3626L774 307.0764L774 430L702 430L630 430L558 430L486 430L414 430L342 430L270 430L198 430L126 430Z" fill="#FFC599" fill-opacity="0.5"></path></g><path d="M90 430L90 60" fill="transparent" stroke="black" stroke-width="2" stroke-linecap="round"></path><text dominant-baseline="central" text-anchor="middle" xml:space="preserve" y="-30" transform="matrix(0,-1,1,0,50,245)" fill="black" style="font-size: 20px; font-family: Arial;">Percentage of IGPs carrying</text><text dominant-baseline="central" text-anchor="middle" xml:space="preserve" y="-10" transform="matrix(0,-1,1,0,50,245)" fill="black" style="font-size: 20px; font-family: Arial;">each core structures (per term)</text><path d="M810 430L810 60" fill="transparent" stroke="black" stroke-width="2" stroke-linecap="round"></path><path d="M90 430L810 430" fill="transparent" stroke="black" stroke-width="2" stroke-linecap="round"></path><path d="M90 60L810 60" fill="transparent" stroke="black" stroke-width="2" stroke-linecap="round"></path><path d="M90 430L82 430" fill="transparent" stroke="black" stroke-width="2"></path><path d="M90 377L82 377" fill="transparent" stroke="black" stroke-width="2"></path><path d="M90 325L82 325" fill="transparent" stroke="black" stroke-width="2"></path><path d="M90 272L82 272" fill="transparent" stroke="black" stroke-width="2"></path><path d="M90 219L82 219" fill="transparent" stroke="black" stroke-width="2"></path><path d="M90 166L82 166" fill="transparent" stroke="black" stroke-width="2"></path><path d="M90 113L82 113" fill="transparent" stroke="black" stroke-width="2"></path><path d="M90 60L82 60" fill="transparent" stroke="black" stroke-width="2"></path><path d="M90 430L90 438" fill="transparent" stroke="black" stroke-width="2"></path><path d="M162 430L162 438" fill="transparent" stroke="black" stroke-width="2"></path><path d="M234 430L234 438" fill="transparent" stroke="black" stroke-width="2"></path><path d="M306 430L306 438" fill="transparent" stroke="black" stroke-width="2"></path><path d="M378 430L378 438" fill="transparent" stroke="black" stroke-width="2"></path><path d="M450 430L450 438" fill="transparent" stroke="black" stroke-width="2"></path><path d="M522 430L522 438" fill="transparent" stroke="black" stroke-width="2"></path><path d="M594 430L594 438" fill="transparent" stroke="black" stroke-width="2"></path><path d="M666 430L666 438" fill="transparent" stroke="black" stroke-width="2"></path><path d="M738 430L738 438" fill="transparent" stroke="black" stroke-width="2"></path><path d="M810 430L810 438" fill="transparent" stroke="black" stroke-width="2"></path><text dominant-baseline="central" text-anchor="end" transform="translate(75 430)" fill="black" style="font-size: 20px; font-family: Arial;">0</text><text dominant-baseline="central" text-anchor="end" transform="translate(75 377.1429)" fill="black" style="font-size: 20px; font-family: Arial;">0.1</text><text dominant-baseline="central" text-anchor="end" transform="translate(75 324.2857)" fill="black" style="font-size: 20px; font-family: Arial;">0.2</text><text dominant-baseline="central" text-anchor="end" transform="translate(75 271.4286)" fill="black" style="font-size: 20px; font-family: Arial;">0.3</text><text dominant-baseline="central" text-anchor="end" transform="translate(75 218.5714)" fill="black" style="font-size: 20px; font-family: Arial;">0.4</text><text dominant-baseline="central" text-anchor="end" transform="translate(75 165.7143)" fill="black" style="font-size: 20px; font-family: Arial;">0.5</text><text dominant-baseline="central" text-anchor="end" transform="translate(75 112.8571)" fill="black" style="font-size: 20px; font-family: Arial;">0.6</text><text dominant-baseline="central" text-anchor="end" transform="translate(75 60)" fill="black" style="font-size: 20px; font-family: Arial;">0.7</text><text dominant-baseline="central" text-anchor="start" xml:space="preserve" transform="matrix(0.966,0.259,-0.259,0.966,126,445)" fill="black" style="font-size: 10px; font-family: Arial;">Cell adhesion</text><text dominant-baseline="central" text-anchor="start" xml:space="preserve" transform="matrix(0.966,0.259,-0.259,0.966,198,445)" fill="black" style="font-size: 10px; font-family: Arial;">Synapse organization</text><text dominant-baseline="central" text-anchor="start" xml:space="preserve" y="-5" transform="matrix(0.966,0.259,-0.259,0.966,270,445)" fill="black" style="font-size: 10px; font-family: Arial;">Cell junction organi</text><text dominant-baseline="central" text-anchor="start" y="5" transform="matrix(0.966,0.259,-0.259,0.966,270,445)" fill="black" style="font-size: 10px; font-family: Arial;">zation</text><text dominant-baseline="central" text-anchor="start" xml:space="preserve" y="-5" transform="matrix(0.966,0.259,-0.259,0.966,342,445)" fill="black" style="font-size: 10px; font-family: Arial;">Neuron projection mo</text><text dominant-baseline="central" text-anchor="start" y="5" transform="matrix(0.966,0.259,-0.259,0.966,342,445)" fill="black" style="font-size: 10px; font-family: Arial;">rphogenesis</text><text dominant-baseline="central" text-anchor="start" xml:space="preserve" y="-10" transform="matrix(0.966,0.259,-0.259,0.966,414,445)" fill="black" style="font-size: 10px; font-family: Arial;">Plasma membrane boun</text><text dominant-baseline="central" text-anchor="start" xml:space="preserve" transform="matrix(0.966,0.259,-0.259,0.966,414,445)" fill="black" style="font-size: 10px; font-family: Arial;">ded cell projection </text><text dominant-baseline="central" text-anchor="start" y="10" transform="matrix(0.966,0.259,-0.259,0.966,414,445)" fill="black" style="font-size: 10px; font-family: Arial;">morphogenesis</text><text dominant-baseline="central" text-anchor="start" xml:space="preserve" y="-5" transform="matrix(0.966,0.259,-0.259,0.966,486,445)" fill="black" style="font-size: 10px; font-family: Arial;">Cell projection morp</text><text dominant-baseline="central" text-anchor="start" y="5" transform="matrix(0.966,0.259,-0.259,0.966,486,445)" fill="black" style="font-size: 10px; font-family: Arial;">hogenesis</text><text dominant-baseline="central" text-anchor="start" xml:space="preserve" transform="matrix(0.966,0.259,-0.259,0.966,558,445)" fill="black" style="font-size: 10px; font-family: Arial;">Neuron development</text><text dominant-baseline="central" text-anchor="start" xml:space="preserve" y="-5" transform="matrix(0.966,0.259,-0.259,0.966,630,445)" fill="black" style="font-size: 10px; font-family: Arial;">Neuron projection de</text><text dominant-baseline="central" text-anchor="start" y="5" transform="matrix(0.966,0.259,-0.259,0.966,630,445)" fill="black" style="font-size: 10px; font-family: Arial;">velopment</text><text dominant-baseline="central" text-anchor="start" xml:space="preserve" y="-10" transform="matrix(0.966,0.259,-0.259,0.966,702,445)" fill="black" style="font-size: 10px; font-family: Arial;">Cell morphogenesis i</text><text dominant-baseline="central" text-anchor="start" xml:space="preserve" transform="matrix(0.966,0.259,-0.259,0.966,702,445)" fill="black" style="font-size: 10px; font-family: Arial;">nvolved in neuron di</text><text dominant-baseline="central" text-anchor="start" y="10" transform="matrix(0.966,0.259,-0.259,0.966,702,445)" fill="black" style="font-size: 10px; font-family: Arial;">fferentiation</text><text dominant-baseline="central" text-anchor="start" xml:space="preserve" y="-5" transform="matrix(0.966,0.259,-0.259,0.966,774,445)" fill="black" style="font-size: 10px; font-family: Arial;">Anatomical structure</text><text dominant-baseline="central" text-anchor="start" xml:space="preserve" y="5" transform="matrix(0.966,0.259,-0.259,0.966,774,445)" fill="black" style="font-size: 10px; font-family: Arial;"> morphogenesis</text><g clip-path="url(#zr0-c0)"><path d="M126 195.0794L198 165.7143L270 174.8276L342 127.9592L414 127.9592L486 127.9592L558 106.9841L630 125.671L702 125.0549L774 110.3987" fill="transparent" stroke="#4E2A5C" stroke-width="2" stroke-linejoin="bevel"></path></g><g clip-path="url(#zr0-c1)"><path d="M126 418.254L198 409.6703L270 411.7734L342 430L414 430L486 430L558 415.3175L630 413.9827L702 430L774 430" fill="transparent" stroke="#C54E83" stroke-width="2" stroke-linejoin="bevel"></path></g><g clip-path="url(#zr0-c2)"><path d="M126 289.0476L198 328.3517L270 302.4138L342 373.3673L414 373.3673L486 373.3673L558 371.2698L630 365.9307L702 369.011L774 343.9535" fill="transparent" stroke="#4EBABC" stroke-width="2" stroke-linejoin="bevel"></path></g><g clip-path="url(#zr0-c3)"><path d="M126 289.0476L198 287.6923L270 302.4138L342 260.1021L414 260.1021L486 260.1021L558 297.8571L630 285.8441L702 267.3626L774 307.0764" fill="transparent" stroke="#FFC599" stroke-width="2" stroke-linejoin="bevel"></path></g><path d="M1 0A1 1 0 1 1 1 -0.0001" transform="matrix(2.5,0,0,2.5,126,195.0794)" fill="#4E2A5C"></path><path d="M1 0A1 1 0 1 1 1 -0.0001" transform="matrix(2.5,0,0,2.5,198,165.7143)" fill="#4E2A5C"></path><path d="M1 0A1 1 0 1 1 1 -0.0001" transform="matrix(2.5,0,0,2.5,270,174.8276)" fill="#4E2A5C"></path><path d="M1 0A1 1 0 1 1 1 -0.0001" transform="matrix(2.5,0,0,2.5,342,127.9592)" fill="#4E2A5C"></path><path d="M1 0A1 1 0 1 1 1 -0.0001" transform="matrix(2.5,0,0,2.5,414,127.9592)" fill="#4E2A5C"></path><path d="M1 0A1 1 0 1 1 1 -0.0001" transform="matrix(2.5,0,0,2.5,486,127.9592)" fill="#4E2A5C"></path><path d="M1 0A1 1 0 1 1 1 -0.0001" transform="matrix(2.5,0,0,2.5,558,106.9841)" fill="#4E2A5C"></path><path d="M1 0A1 1 0 1 1 1 -0.0001" transform="matrix(2.5,0,0,2.5,630,125.671)" fill="#4E2A5C"></path><path d="M1 0A1 1 0 1 1 1 -0.0001" transform="matrix(2.5,0,0,2.5,702,125.0549)" fill="#4E2A5C"></path><path d="M1 0A1 1 0 1 1 1 -0.0001" transform="matrix(2.5,0,0,2.5,774,110.3987)" fill="#4E2A5C"></path><path d="M1 0A1 1 0 1 1 1 -0.0001" transform="matrix(2.5,0,0,2.5,126,418.254)" fill="#C54E83"></path><path d="M1 0A1 1 0 1 1 1 -0.0001" transform="matrix(2.5,0,0,2.5,198,409.6703)" fill="#C54E83"></path><path d="M1 0A1 1 0 1 1 1 -0.0001" transform="matrix(2.5,0,0,2.5,270,411.7734)" fill="#C54E83"></path><path d="M1 0A1 1 0 1 1 1 -0.0001" transform="matrix(2.5,0,0,2.5,342,430)" fill="#C54E83"></path><path d="M1 0A1 1 0 1 1 1 -0.0001" transform="matrix(2.5,0,0,2.5,414,430)" fill="#C54E83"></path><path d="M1 0A1 1 0 1 1 1 -0.0001" transform="matrix(2.5,0,0,2.5,486,430)" fill="#C54E83"></path><path d="M1 0A1 1 0 1 1 1 -0.0001" transform="matrix(2.5,0,0,2.5,558,415.3175)" fill="#C54E83"></path><path d="M1 0A1 1 0 1 1 1 -0.0001" transform="matrix(2.5,0,0,2.5,630,413.9827)" fill="#C54E83"></path><path d="M1 0A1 1 0 1 1 1 -0.0001" transform="matrix(2.5,0,0,2.5,702,430)" fill="#C54E83"></path><path d="M1 0A1 1 0 1 1 1 -0.0001" transform="matrix(2.5,0,0,2.5,774,430)" fill="#C54E83"></path><path d="M1 0A1 1 0 1 1 1 -0.0001" transform="matrix(2.5,0,0,2.5,126,289.0476)" fill="#4EBABC"></path><path d="M1 0A1 1 0 1 1 1 -0.0001" transform="matrix(2.5,0,0,2.5,198,328.3517)" fill="#4EBABC"></path><path d="M1 0A1 1 0 1 1 1 -0.0001" transform="matrix(2.5,0,0,2.5,270,302.4138)" fill="#4EBABC"></path><path d="M1 0A1 1 0 1 1 1 -0.0001" transform="matrix(2.5,0,0,2.5,342,373.3673)" fill="#4EBABC"></path><path d="M1 0A1 1 0 1 1 1 -0.0001" transform="matrix(2.5,0,0,2.5,414,373.3673)" fill="#4EBABC"></path><path d="M1 0A1 1 0 1 1 1 -0.0001" transform="matrix(2.5,0,0,2.5,486,373.3673)" fill="#4EBABC"></path><path d="M1 0A1 1 0 1 1 1 -0.0001" transform="matrix(2.5,0,0,2.5,558,371.2698)" fill="#4EBABC"></path><path d="M1 0A1 1 0 1 1 1 -0.0001" transform="matrix(2.5,0,0,2.5,630,365.9307)" fill="#4EBABC"></path><path d="M1 0A1 1 0 1 1 1 -0.0001" transform="matrix(2.5,0,0,2.5,702,369.011)" fill="#4EBABC"></path><path d="M1 0A1 1 0 1 1 1 -0.0001" transform="matrix(2.5,0,0,2.5,774,343.9535)" fill="#4EBABC"></path><path d="M1 0A1 1 0 1 1 1 -0.0001" transform="matrix(2.5,0,0,2.5,126,289.0476)" fill="#FFC599"></path><path d="M1 0A1 1 0 1 1 1 -0.0001" transform="matrix(2.5,0,0,2.5,198,287.6923)" fill="#FFC599"></path><path d="M1 0A1 1 0 1 1 1 -0.0001" transform="matrix(2.5,0,0,2.5,270,302.4138)" fill="#FFC599"></path><path d="M1 0A1 1 0 1 1 1 -0.0001" transform="matrix(2.5,0,0,2.5,342,260.1021)" fill="#FFC599"></path><path d="M1 0A1 1 0 1 1 1 -0.0001" transform="matrix(2.5,0,0,2.5,414,260.1021)" fill="#FFC599"></path><path d="M1 0A1 1 0 1 1 1 -0.0001" transform="matrix(2.5,0,0,2.5,486,260.1021)" fill="#FFC599"></path><path d="M1 0A1 1 0 1 1 1 -0.0001" transform="matrix(2.5,0,0,2.5,558,297.8571)" fill="#FFC599"></path><path d="M1 0A1 1 0 1 1 1 -0.0001" transform="matrix(2.5,0,0,2.5,630,285.8441)" fill="#FFC599"></path><path d="M1 0A1 1 0 1 1 1 -0.0001" transform="matrix(2.5,0,0,2.5,702,267.3626)" fill="#FFC599"></path><path d="M1 0A1 1 0 1 1 1 -0.0001" transform="matrix(2.5,0,0,2.5,774,307.0764)" fill="#FFC599"></path><path d="M-5 -5l419 0l0 30l-419 0Z" transform="translate(245.5 5)" fill="transparent" stroke="#ccc" stroke-width="0"></path><path d="M0 7L25 7" transform="translate(246.5 8)" fill="#000" stroke="#4E2A5C" stroke-width="2" stroke-linecap="butt" stroke-miterlimit="10"></path><path d="M18.1 7A5.6 5.6 0 1 1 18.1 6.9994" transform="translate(246.5 8)" fill="#4E2A5C"></path><text dominant-baseline="central" text-anchor="start" x="30" y="7" transform="translate(246.5 8)" fill="#333" style="font-size: 20px; font-family: Arial;">Core-I</text><path d="M-1 -3l87 0l0 20l-87 0Z" transform="translate(246.5 8)" fill="transparent"></path><path d="M0 7L25 7" transform="translate(343.5 8)" fill="#000" stroke="#C54E83" stroke-width="2" stroke-linecap="butt" stroke-miterlimit="10"></path><path d="M18.1 7A5.6 5.6 0 1 1 18.1 6.9994" transform="translate(343.5 8)" fill="#C54E83"></path><text dominant-baseline="central" text-anchor="start" x="30" y="7" transform="translate(343.5 8)" fill="#333" style="font-size: 20px; font-family: Arial;">Core-III</text><path d="M-1 -3l99 0l0 20l-99 0Z" transform="translate(343.5 8)" fill="transparent"></path><path d="M0 7L25 7" transform="translate(452.5 8)" fill="#000" stroke="#4EBABC" stroke-width="2" stroke-linecap="butt" stroke-miterlimit="10"></path><path d="M18.1 7A5.6 5.6 0 1 1 18.1 6.9994" transform="translate(452.5 8)" fill="#4EBABC"></path><text dominant-baseline="central" text-anchor="start" x="30" y="7" transform="translate(452.5 8)" fill="#333" style="font-size: 20px; font-family: Arial;">Core-II</text><path d="M-1 -3l93 0l0 20l-93 0Z" transform="translate(452.5 8)" fill="transparent"></path><path d="M0 7L25 7" transform="translate(555.5 8)" fill="#000" stroke="#FFC599" stroke-width="2" stroke-linecap="butt" stroke-miterlimit="10"></path><path d="M18.1 7A5.6 5.6 0 1 1 18.1 6.9994" transform="translate(555.5 8)" fill="#FFC599"></path><text dominant-baseline="central" text-anchor="start" x="30" y="7" transform="translate(555.5 8)" fill="#333" style="font-size: 20px; font-family: Arial;">Core-IV</text><path d="M-1 -3l100 0l0 20l-100 0Z" transform="translate(555.5 8)" fill="transparent"></path><path d="M-5 -5l10 0l0 10l-10 0Z" transform="translate(450 5)" fill="rgb(0,0,0)" fill-opacity="0" stroke="#ccc" stroke-width="0"></path></g><defs><clipPath id="zr0-c0"><path d="M89 59l722 0l0 372l-722 0Z" fill="#000"></path></clipPath><clipPath id="zr0-c1"><path d="M89 59l722 0l0 372l-722 0Z" fill="#000"></path></clipPath><clipPath id="zr0-c2"><path d="M89 59l722 0l0 372l-722 0Z" fill="#000"></path></clipPath><clipPath id="zr0-c3"><path d="M89 59l722 0l0 372l-722 0Z" fill="#000"></path></clipPath></defs></svg>
