<svg xmlns="http://www.w3.org/2000/svg" xmlns:xlink="http://www.w3.org/1999/xlink" version="1.1" baseProfile="full" width="1600" height="800" style="position: absolute; left: 0px; top: 0px;"><rect width="1600" height="800" x="0" y="0" fill="#fff"></rect><g><path d="M480 560L480 60" fill="transparent" stroke="black" stroke-width="2" stroke-linecap="round"></path><text dominant-baseline="central" text-anchor="middle" xml:space="preserve" y="-15" transform="matrix(0,-1,1,0,410,310)" fill="black" style="font-size: 30px; font-family: Arial;">Number of glycans</text><path d="M1440 560L1440 60" fill="transparent" stroke="black" stroke-width="2" stroke-linecap="round"></path><path d="M480 560L1440 560" fill="transparent" stroke="black" stroke-width="2" stroke-linecap="round"></path><text dominant-baseline="central" text-anchor="middle" y="15" transform="translate(960 700)" fill="black" style="font-size: 30px; font-family: Arial;">Glycoprotein</text><path d="M480 60L1440 60" fill="transparent" stroke="black" stroke-width="2" stroke-linecap="round"></path><path d="M480 560L472 560" fill="transparent" stroke="black" stroke-width="2"></path><path d="M480 477L472 477" fill="transparent" stroke="black" stroke-width="2"></path><path d="M480 394L472 394" fill="transparent" stroke="black" stroke-width="2"></path><path d="M480 310L472 310" fill="transparent" stroke="black" stroke-width="2"></path><path d="M480 227L472 227" fill="transparent" stroke="black" stroke-width="2"></path><path d="M480 144L472 144" fill="transparent" stroke="black" stroke-width="2"></path><path d="M480 60L472 60" fill="transparent" stroke="black" stroke-width="2"></path><path d="M480 560L480 568" fill="transparent" stroke="black" stroke-width="2"></path><path d="M576 560L576 568" fill="transparent" stroke="black" stroke-width="2"></path><path d="M672 560L672 568" fill="transparent" stroke="black" stroke-width="2"></path><path d="M768 560L768 568" fill="transparent" stroke="black" stroke-width="2"></path><path d="M864 560L864 568" fill="transparent" stroke="black" stroke-width="2"></path><path d="M960 560L960 568" fill="transparent" stroke="black" stroke-width="2"></path><path d="M1056 560L1056 568" fill="transparent" stroke="black" stroke-width="2"></path><path d="M1152 560L1152 568" fill="transparent" stroke="black" stroke-width="2"></path><path d="M1248 560L1248 568" fill="transparent" stroke="black" stroke-width="2"></path><path d="M1344 560L1344 568" fill="transparent" stroke="black" stroke-width="2"></path><path d="M1440 560L1440 568" fill="transparent" stroke="black" stroke-width="2"></path><text dominant-baseline="central" text-anchor="end" transform="translate(465 560)" fill="black" style="font-size: 30px; font-family: Arial;">0</text><text dominant-baseline="central" text-anchor="end" transform="translate(465 476.6667)" fill="black" style="font-size: 30px; font-family: Arial;">200</text><text dominant-baseline="central" text-anchor="end" transform="translate(465 393.3333)" fill="black" style="font-size: 30px; font-family: Arial;">400</text><text dominant-baseline="central" text-anchor="end" transform="translate(465 310)" fill="black" style="font-size: 30px; font-family: Arial;">600</text><text dominant-baseline="central" text-anchor="end" transform="translate(465 226.6667)" fill="black" style="font-size: 30px; font-family: Arial;">800</text><text dominant-baseline="central" text-anchor="end" transform="translate(465 143.3333)" fill="black" style="font-size: 30px; font-family: Arial;">1,000</text><text dominant-baseline="central" text-anchor="end" transform="translate(465 60)" fill="black" style="font-size: 30px; font-family: Arial;">1,200</text><text dominant-baseline="central" text-anchor="start" transform="matrix(0.707,0.707,-0.707,0.707,528,585)" fill="black" style="font-size: 30px; font-family: Arial;">Lrp2</text><text dominant-baseline="central" text-anchor="start" transform="matrix(0.707,0.707,-0.707,0.707,624,585)" fill="black" style="font-size: 30px; font-family: Arial;">At1b1</text><text dominant-baseline="central" text-anchor="start" transform="matrix(0.707,0.707,-0.707,0.707,720,585)" fill="black" style="font-size: 30px; font-family: Arial;">Mep1a</text><text dominant-baseline="central" text-anchor="start" transform="matrix(0.707,0.707,-0.707,0.707,816,585)" fill="black" style="font-size: 30px; font-family: Arial;">Ggt1</text><text dominant-baseline="central" text-anchor="start" transform="matrix(0.707,0.707,-0.707,0.707,912,585)" fill="black" style="font-size: 30px; font-family: Arial;">Ampn</text><text dominant-baseline="central" text-anchor="start" transform="matrix(0.707,0.707,-0.707,0.707,1008,585)" fill="black" style="font-size: 30px; font-family: Arial;">Cad16</text><text dominant-baseline="central" text-anchor="start" transform="matrix(0.707,0.707,-0.707,0.707,1104,585)" fill="black" style="font-size: 30px; font-family: Arial;">Cubn</text><text dominant-baseline="central" text-anchor="start" transform="matrix(0.707,0.707,-0.707,0.707,1200,585)" fill="black" style="font-size: 30px; font-family: Arial;">Ita1</text><text dominant-baseline="central" text-anchor="start" transform="matrix(0.707,0.707,-0.707,0.707,1296,585)" fill="black" style="font-size: 30px; font-family: Arial;">Mep1b;Mep1b</text><text dominant-baseline="central" text-anchor="start" transform="matrix(0.707,0.707,-0.707,0.707,1392,585)" fill="black" style="font-size: 30px; font-family: Arial;">Lamp2;Lamp2;Lamp2</text><path d="M499.2 560l57.6 0l0 -420.8333l-57.6 0Z" fill="#159947"></path><path d="M595.2 560l57.6 0l0 -267.5l-57.6 0Z" fill="#159947"></path><path d="M691.2 560l57.6 0l0 -157.0833l-57.6 0Z" fill="#159947"></path><path d="M787.2 560l57.6 0l0 -111.6667l-57.6 0Z" fill="#159947"></path><path d="M883.2 560l57.6 0l0 -97.5l-57.6 0Z" fill="#159947"></path><path d="M979.2 560l57.6 0l0 -88.75l-57.6 0Z" fill="#159947"></path><path d="M1075.2 560l57.6 0l0 -81.6667l-57.6 0Z" fill="#159947"></path><path d="M1171.2 560l57.6 0l0 -60.4167l-57.6 0Z" fill="#159947"></path><path d="M1267.2 560l57.6 0l0 -51.25l-57.6 0Z" fill="#159947"></path><path d="M1363.2 560l57.6 0l0 -44.5833l-57.6 0Z" fill="#159947"></path><path d="M-5 -5l262 0l0 40l-262 0Z" transform="translate(674 5)" fill="transparent" stroke="#ccc" stroke-width="0"></path><path d="M3.5 0L21.5 0A3.5 3.5 0 0 1 25 3.5L25 10.5A3.5 3.5 0 0 1 21.5 14L3.5 14A3.5 3.5 0 0 1 0 10.5L0 3.5A3.5 3.5 0 0 1 3.5 0" transform="translate(674 13)" fill="#159947"></path><text dominant-baseline="central" text-anchor="start" xml:space="preserve" x="30" y="7" transform="translate(674 13)" fill="#333" style="font-size: 30px; font-family: Arial;">Count of glycans</text><path d="M0 -8l252 0l0 30l-252 0Z" transform="translate(674 13)" fill="transparent"></path><path d="M-5 -5l10 0l0 10l-10 0Z" transform="translate(800 5)" fill="rgb(0,0,0)" fill-opacity="0" stroke="#ccc" stroke-width="0"></path></g></svg>
