<svg xmlns="http://www.w3.org/2000/svg" xmlns:xlink="http://www.w3.org/1999/xlink" version="1.1" baseProfile="full" width="900" height="500" style="position: absolute; left: 0px; top: 0px;"><rect width="900" height="500" x="0" y="0" fill="#fff"></rect><g><path d="M90 430L90 60" fill="transparent" stroke="black" stroke-width="2" stroke-linecap="round"></path><text dominant-baseline="central" text-anchor="middle" xml:space="preserve" y="-30" transform="matrix(0,-1,1,0,50,245)" fill="black" style="font-size: 20px; font-family: Arial;">Percentage of IGPs carrying</text><text dominant-baseline="central" text-anchor="middle" xml:space="preserve" y="-10" transform="matrix(0,-1,1,0,50,245)" fill="black" style="font-size: 20px; font-family: Arial;">each core structures (per term)</text><path d="M810 430L810 60" fill="transparent" stroke="black" stroke-width="2" stroke-linecap="round"></path><path d="M90 430L810 430" fill="transparent" stroke="black" stroke-width="2" stroke-linecap="round"></path><path d="M90 60L810 60" fill="transparent" stroke="black" stroke-width="2" stroke-linecap="round"></path><path d="M90 430L82 430" fill="transparent" stroke="black" stroke-width="2"></path><path d="M90 356L82 356" fill="transparent" stroke="black" stroke-width="2"></path><path d="M90 282L82 282" fill="transparent" stroke="black" stroke-width="2"></path><path d="M90 208L82 208" fill="transparent" stroke="black" stroke-width="2"></path><path d="M90 134L82 134" fill="transparent" stroke="black" stroke-width="2"></path><path d="M90 60L82 60" fill="transparent" stroke="black" stroke-width="2"></path><path d="M90 430L90 438" fill="transparent" stroke="black" stroke-width="2"></path><path d="M162 430L162 438" fill="transparent" stroke="black" stroke-width="2"></path><path d="M234 430L234 438" fill="transparent" stroke="black" stroke-width="2"></path><path d="M306 430L306 438" fill="transparent" stroke="black" stroke-width="2"></path><path d="M378 430L378 438" fill="transparent" stroke="black" stroke-width="2"></path><path d="M450 430L450 438" fill="transparent" stroke="black" stroke-width="2"></path><path d="M522 430L522 438" fill="transparent" stroke="black" stroke-width="2"></path><path d="M594 430L594 438" fill="transparent" stroke="black" stroke-width="2"></path><path d="M666 430L666 438" fill="transparent" stroke="black" stroke-width="2"></path><path d="M738 430L738 438" fill="transparent" stroke="black" stroke-width="2"></path><path d="M810 430L810 438" fill="transparent" stroke="black" stroke-width="2"></path><text dominant-baseline="central" text-anchor="end" transform="translate(75 430)" fill="black" style="font-size: 20px; font-family: Arial;">0</text><text dominant-baseline="central" text-anchor="end" transform="translate(75 356)" fill="black" style="font-size: 20px; font-family: Arial;">0.2</text><text dominant-baseline="central" text-anchor="end" transform="translate(75 282)" fill="black" style="font-size: 20px; font-family: Arial;">0.4</text><text dominant-baseline="central" text-anchor="end" transform="translate(75 208)" fill="black" style="font-size: 20px; font-family: Arial;">0.6</text><text dominant-baseline="central" text-anchor="end" transform="translate(75 134)" fill="black" style="font-size: 20px; font-family: Arial;">0.8</text><text dominant-baseline="central" text-anchor="end" transform="translate(75 60)" fill="black" style="font-size: 20px; font-family: Arial;">1</text><text dominant-baseline="central" text-anchor="start" transform="matrix(0.966,0.259,-0.259,0.966,126,445)" fill="black" style="font-size: 10px; font-family: Arial;">Synapse</text><text dominant-baseline="central" text-anchor="start" xml:space="preserve" transform="matrix(0.966,0.259,-0.259,0.966,198,445)" fill="black" style="font-size: 10px; font-family: Arial;">Cell junction</text><text dominant-baseline="central" text-anchor="start" transform="matrix(0.966,0.259,-0.259,0.966,270,445)" fill="black" style="font-size: 10px; font-family: Arial;">Membrane</text><text dominant-baseline="central" text-anchor="start" xml:space="preserve" transform="matrix(0.966,0.259,-0.259,0.966,342,445)" fill="black" style="font-size: 10px; font-family: Arial;">Plasma membrane</text><text dominant-baseline="central" text-anchor="start" xml:space="preserve" transform="matrix(0.966,0.259,-0.259,0.966,414,445)" fill="black" style="font-size: 10px; font-family: Arial;">Cell periphery</text><text dominant-baseline="central" text-anchor="start" xml:space="preserve" y="-5" transform="matrix(0.966,0.259,-0.259,0.966,486,445)" fill="black" style="font-size: 10px; font-family: Arial;">Somatodendritic comp</text><text dominant-baseline="central" text-anchor="start" y="5" transform="matrix(0.966,0.259,-0.259,0.966,486,445)" fill="black" style="font-size: 10px; font-family: Arial;">artment</text><text dominant-baseline="central" text-anchor="start" xml:space="preserve" transform="matrix(0.966,0.259,-0.259,0.966,558,445)" fill="black" style="font-size: 10px; font-family: Arial;">Neuron projection</text><text dominant-baseline="central" text-anchor="start" xml:space="preserve" transform="matrix(0.966,0.259,-0.259,0.966,630,445)" fill="black" style="font-size: 10px; font-family: Arial;">Synaptic membrane</text><text dominant-baseline="central" text-anchor="start" transform="matrix(0.966,0.259,-0.259,0.966,702,445)" fill="black" style="font-size: 10px; font-family: Arial;">Presynapse</text><text dominant-baseline="central" text-anchor="start" xml:space="preserve" y="-5" transform="matrix(0.966,0.259,-0.259,0.966,774,445)" fill="black" style="font-size: 10px; font-family: Arial;">Plasma membrane regi</text><text dominant-baseline="central" text-anchor="start" y="5" transform="matrix(0.966,0.259,-0.259,0.966,774,445)" fill="black" style="font-size: 10px; font-family: Arial;">on</text><path d="M104.4 430l43.2 0l0 -222l-43.2 0Z" fill="#4E2A5C"></path><path d="M176.4 430l43.2 0l0 -218.6364l-43.2 0Z" fill="#4E2A5C"></path><path d="M248.4 430l43.2 0l0 -227.2857l-43.2 0Z" fill="#4E2A5C"></path><path d="M320.4 430l43.2 0l0 -232.0339l-43.2 0Z" fill="#4E2A5C"></path><path d="M392.4 430l43.2 0l0 -228.1667l-43.2 0Z" fill="#4E2A5C"></path><path d="M464.4 430l43.2 0l0 -191.8519l-43.2 0Z" fill="#4E2A5C"></path><path d="M536.4 430l43.2 0l0 -161.875l-43.2 0Z" fill="#4E2A5C"></path><path d="M608.4 430l43.2 0l0 -185l-43.2 0Z" fill="#4E2A5C"></path><path d="M680.4 430l43.2 0l0 -201.8182l-43.2 0Z" fill="#4E2A5C"></path><path d="M752.4 430l43.2 0l0 -214.8387l-43.2 0Z" fill="#4E2A5C"></path><path d="M104.4 208l43.2 0l0 -74l-43.2 0Z" fill="#C54E83"></path><path d="M176.4 211.3636l43.2 0l0 -84.0909l-43.2 0Z" fill="#C54E83"></path><path d="M248.4 202.7143l43.2 0l0 -68.7143l-43.2 0Z" fill="#C54E83"></path><path d="M320.4 197.9661l43.2 0l0 -75.2542l-43.2 0Z" fill="#C54E83"></path><path d="M392.4 201.8333l43.2 0l0 -74l-43.2 0Z" fill="#C54E83"></path><path d="M464.4 238.1481l43.2 0l0 -123.3333l-43.2 0Z" fill="#C54E83"></path><path d="M536.4 268.125l43.2 0l0 -127.1875l-43.2 0Z" fill="#C54E83"></path><path d="M608.4 245l43.2 0l0 -111l-43.2 0Z" fill="#C54E83"></path><path d="M680.4 228.1818l43.2 0l0 -100.9091l-43.2 0Z" fill="#C54E83"></path><path d="M752.4 215.1613l43.2 0l0 -83.5484l-43.2 0Z" fill="#C54E83"></path><path d="M104.4 134l43.2 0l0 -74l-43.2 0Z" fill="#4EBABC"></path><path d="M176.4 127.2727l43.2 0l0 -67.2727l-43.2 0Z" fill="#4EBABC"></path><path d="M248.4 134l43.2 0l0 -74l-43.2 0Z" fill="#4EBABC"></path><path d="M320.4 122.7119l43.2 0l0 -62.7119l-43.2 0Z" fill="#4EBABC"></path><path d="M392.4 127.8333l43.2 0l0 -67.8333l-43.2 0Z" fill="#4EBABC"></path><path d="M464.4 114.8148l43.2 0l0 -54.8148l-43.2 0Z" fill="#4EBABC"></path><path d="M536.4 140.9375l43.2 0l0 -80.9375l-43.2 0Z" fill="#4EBABC"></path><path d="M608.4 134l43.2 0l0 -74l-43.2 0Z" fill="#4EBABC"></path><path d="M680.4 127.2727l43.2 0l0 -67.2727l-43.2 0Z" fill="#4EBABC"></path><path d="M752.4 131.6129l43.2 0l0 -71.6129l-43.2 0Z" fill="#4EBABC"></path><path d="M-5 -5l383 0l0 30l-383 0Z" transform="translate(263.5 5)" fill="transparent" stroke="#ccc" stroke-width="0"></path><path d="M3.5 0L21.5 0A3.5 3.5 0 0 1 25 3.5L25 10.5A3.5 3.5 0 0 1 21.5 14L3.5 14A3.5 3.5 0 0 1 0 10.5L0 3.5A3.5 3.5 0 0 1 3.5 0" transform="translate(263.5 8)" fill="#4E2A5C"></path><text dominant-baseline="central" text-anchor="start" xml:space="preserve" x="30" y="7" transform="translate(263.5 8)" fill="#333" style="font-size: 20px; font-family: Arial;">Oligo mannose</text><path d="M0 -3l161 0l0 20l-161 0Z" transform="translate(263.5 8)" fill="transparent"></path><path d="M3.5 0L21.5 0A3.5 3.5 0 0 1 25 3.5L25 10.5A3.5 3.5 0 0 1 21.5 14L3.5 14A3.5 3.5 0 0 1 0 10.5L0 3.5A3.5 3.5 0 0 1 3.5 0" transform="translate(434.5 8)" fill="#C54E83"></path><text dominant-baseline="central" text-anchor="start" x="30" y="7" transform="translate(434.5 8)" fill="#333" style="font-size: 20px; font-family: Arial;">Hybrid</text><path d="M0 -3l86 0l0 20l-86 0Z" transform="translate(434.5 8)" fill="transparent"></path><path d="M3.5 0L21.5 0A3.5 3.5 0 0 1 25 3.5L25 10.5A3.5 3.5 0 0 1 21.5 14L3.5 14A3.5 3.5 0 0 1 0 10.5L0 3.5A3.5 3.5 0 0 1 3.5 0" transform="translate(530.5 8)" fill="#4EBABC"></path><text dominant-baseline="central" text-anchor="start" x="30" y="7" transform="translate(530.5 8)" fill="#333" style="font-size: 20px; font-family: Arial;">Complex</text><path d="M0 -3l106 0l0 20l-106 0Z" transform="translate(530.5 8)" fill="transparent"></path><path d="M-5 -5l10 0l0 10l-10 0Z" transform="translate(450 5)" fill="rgb(0,0,0)" fill-opacity="0" stroke="#ccc" stroke-width="0"></path></g></svg>
