<svg xmlns="http://www.w3.org/2000/svg" xmlns:xlink="http://www.w3.org/1999/xlink" version="1.1" baseProfile="full" width="900" height="500" style="position: absolute; left: 0px; top: 0px;"><rect width="900" height="500" x="0" y="0" fill="#fff"></rect><g><path d="M90 430L90 60" fill="transparent" stroke="black" stroke-width="2" stroke-linecap="round"></path><text dominant-baseline="central" text-anchor="middle" xml:space="preserve" y="-30" transform="matrix(0,-1,1,0,50,245)" fill="black" style="font-size: 20px; font-family: Arial;">Percentage of IGPs carrying</text><text dominant-baseline="central" text-anchor="middle" xml:space="preserve" y="-10" transform="matrix(0,-1,1,0,50,245)" fill="black" style="font-size: 20px; font-family: Arial;">each core structures (per term)</text><path d="M810 430L810 60" fill="transparent" stroke="black" stroke-width="2" stroke-linecap="round"></path><path d="M90 430L810 430" fill="transparent" stroke="black" stroke-width="2" stroke-linecap="round"></path><path d="M90 60L810 60" fill="transparent" stroke="black" stroke-width="2" stroke-linecap="round"></path><path d="M90 430L82 430" fill="transparent" stroke="black" stroke-width="2"></path><path d="M90 356L82 356" fill="transparent" stroke="black" stroke-width="2"></path><path d="M90 282L82 282" fill="transparent" stroke="black" stroke-width="2"></path><path d="M90 208L82 208" fill="transparent" stroke="black" stroke-width="2"></path><path d="M90 134L82 134" fill="transparent" stroke="black" stroke-width="2"></path><path d="M90 60L82 60" fill="transparent" stroke="black" stroke-width="2"></path><path d="M90 430L90 438" fill="transparent" stroke="black" stroke-width="2"></path><path d="M193 430L193 438" fill="transparent" stroke="black" stroke-width="2"></path><path d="M296 430L296 438" fill="transparent" stroke="black" stroke-width="2"></path><path d="M399 430L399 438" fill="transparent" stroke="black" stroke-width="2"></path><path d="M502 430L502 438" fill="transparent" stroke="black" stroke-width="2"></path><path d="M605 430L605 438" fill="transparent" stroke="black" stroke-width="2"></path><path d="M707 430L707 438" fill="transparent" stroke="black" stroke-width="2"></path><path d="M810 430L810 438" fill="transparent" stroke="black" stroke-width="2"></path><text dominant-baseline="central" text-anchor="end" transform="translate(75 430)" fill="black" style="font-size: 20px; font-family: Arial;">0</text><text dominant-baseline="central" text-anchor="end" transform="translate(75 356)" fill="black" style="font-size: 20px; font-family: Arial;">0.2</text><text dominant-baseline="central" text-anchor="end" transform="translate(75 282)" fill="black" style="font-size: 20px; font-family: Arial;">0.4</text><text dominant-baseline="central" text-anchor="end" transform="translate(75 208)" fill="black" style="font-size: 20px; font-family: Arial;">0.6</text><text dominant-baseline="central" text-anchor="end" transform="translate(75 134)" fill="black" style="font-size: 20px; font-family: Arial;">0.8</text><text dominant-baseline="central" text-anchor="end" transform="translate(75 60)" fill="black" style="font-size: 20px; font-family: Arial;">1</text><text dominant-baseline="central" text-anchor="start" xml:space="preserve" y="-5" transform="matrix(0.966,0.259,-0.259,0.966,141.4286,445)" fill="black" style="font-size: 10px; font-family: Arial;">Cell adhesion molecu</text><text dominant-baseline="central" text-anchor="start" xml:space="preserve" y="5" transform="matrix(0.966,0.259,-0.259,0.966,141.4286,445)" fill="black" style="font-size: 10px; font-family: Arial;">le binding</text><text dominant-baseline="central" text-anchor="start" xml:space="preserve" y="-5" transform="matrix(0.966,0.259,-0.259,0.966,244.2857,445)" fill="black" style="font-size: 10px; font-family: Arial;">Cell-cell adhesion m</text><text dominant-baseline="central" text-anchor="start" xml:space="preserve" y="5" transform="matrix(0.966,0.259,-0.259,0.966,244.2857,445)" fill="black" style="font-size: 10px; font-family: Arial;">ediator activity</text><text dominant-baseline="central" text-anchor="start" xml:space="preserve" y="-5" transform="matrix(0.966,0.259,-0.259,0.966,347.1429,445)" fill="black" style="font-size: 10px; font-family: Arial;">Cell adhesion mediat</text><text dominant-baseline="central" text-anchor="start" xml:space="preserve" y="5" transform="matrix(0.966,0.259,-0.259,0.966,347.1429,445)" fill="black" style="font-size: 10px; font-family: Arial;">or activity</text><text dominant-baseline="central" text-anchor="start" xml:space="preserve" transform="matrix(0.966,0.259,-0.259,0.966,450,445)" fill="black" style="font-size: 10px; font-family: Arial;">Protein binding</text><text dominant-baseline="central" text-anchor="start" xml:space="preserve" y="-10" transform="matrix(0.966,0.259,-0.259,0.966,552.8571,445)" fill="black" style="font-size: 10px; font-family: Arial;">Monoatomic ion trans</text><text dominant-baseline="central" text-anchor="start" xml:space="preserve" transform="matrix(0.966,0.259,-0.259,0.966,552.8571,445)" fill="black" style="font-size: 10px; font-family: Arial;">membrane transporter</text><text dominant-baseline="central" text-anchor="start" xml:space="preserve" y="10" transform="matrix(0.966,0.259,-0.259,0.966,552.8571,445)" fill="black" style="font-size: 10px; font-family: Arial;"> activity</text><text dominant-baseline="central" text-anchor="start" xml:space="preserve" y="-5" transform="matrix(0.966,0.259,-0.259,0.966,655.7143,445)" fill="black" style="font-size: 10px; font-family: Arial;">Monoatomic ion chann</text><text dominant-baseline="central" text-anchor="start" xml:space="preserve" y="5" transform="matrix(0.966,0.259,-0.259,0.966,655.7143,445)" fill="black" style="font-size: 10px; font-family: Arial;">el activity</text><text dominant-baseline="central" text-anchor="start" xml:space="preserve" y="-5" transform="matrix(0.966,0.259,-0.259,0.966,758.5714,445)" fill="black" style="font-size: 10px; font-family: Arial;">Transmembrane transp</text><text dominant-baseline="central" text-anchor="start" xml:space="preserve" y="5" transform="matrix(0.966,0.259,-0.259,0.966,758.5714,445)" fill="black" style="font-size: 10px; font-family: Arial;">orter activity</text><path d="M110.5714 430l61.7143 0l0 -123.3333l-61.7143 0Z" fill="#4E2A5C"></path><path d="M213.4286 430l61.7143 0l0 -123.3333l-61.7143 0Z" fill="#4E2A5C"></path><path d="M316.2857 430l61.7143 0l0 -123.3333l-61.7143 0Z" fill="#4E2A5C"></path><path d="M419.1429 430l61.7143 0l0 -239.8148l-61.7143 0Z" fill="#4E2A5C"></path><path d="M522 430l61.7143 0l0 -341.5385l-61.7143 0Z" fill="#4E2A5C"></path><path d="M624.8571 430l61.7143 0l0 -328.8889l-61.7143 0Z" fill="#4E2A5C"></path><path d="M727.7143 430l61.7143 0l0 -343.5714l-61.7143 0Z" fill="#4E2A5C"></path><path d="M110.5714 306.6667l61.7143 0l0 -185l-61.7143 0Z" fill="#C54E83"></path><path d="M213.4286 306.6667l61.7143 0l0 -164.4444l-61.7143 0Z" fill="#C54E83"></path><path d="M316.2857 306.6667l61.7143 0l0 -164.4444l-61.7143 0Z" fill="#C54E83"></path><path d="M419.1429 190.1852l61.7143 0l0 -75.3704l-61.7143 0Z" fill="#C54E83"></path><path d="M522 88.4615l61.7143 0l0 0l-61.7143 0Z" fill="#C54E83"></path><path d="M624.8571 101.1111l61.7143 0l0 0l-61.7143 0Z" fill="#C54E83"></path><path d="M727.7143 86.4286l61.7143 0l0 0l-61.7143 0Z" fill="#C54E83"></path><path d="M110.5714 121.6667l61.7143 0l0 -61.6667l-61.7143 0Z" fill="#4EBABC"></path><path d="M213.4286 142.2222l61.7143 0l0 -82.2222l-61.7143 0Z" fill="#4EBABC"></path><path d="M316.2857 142.2222l61.7143 0l0 -82.2222l-61.7143 0Z" fill="#4EBABC"></path><path d="M419.1429 114.8148l61.7143 0l0 -54.8148l-61.7143 0Z" fill="#4EBABC"></path><path d="M522 88.4615l61.7143 0l0 -28.4615l-61.7143 0Z" fill="#4EBABC"></path><path d="M624.8571 101.1111l61.7143 0l0 -41.1111l-61.7143 0Z" fill="#4EBABC"></path><path d="M727.7143 86.4286l61.7143 0l0 -26.4286l-61.7143 0Z" fill="#4EBABC"></path><path d="M-5 -5l383 0l0 30l-383 0Z" transform="translate(263.5 5)" fill="transparent" stroke="#ccc" stroke-width="0"></path><path d="M3.5 0L21.5 0A3.5 3.5 0 0 1 25 3.5L25 10.5A3.5 3.5 0 0 1 21.5 14L3.5 14A3.5 3.5 0 0 1 0 10.5L0 3.5A3.5 3.5 0 0 1 3.5 0" transform="translate(263.5 8)" fill="#4E2A5C"></path><text dominant-baseline="central" text-anchor="start" xml:space="preserve" x="30" y="7" transform="translate(263.5 8)" fill="#333" style="font-size: 20px; font-family: Arial;">Oligo mannose</text><path d="M0 -3l161 0l0 20l-161 0Z" transform="translate(263.5 8)" fill="transparent"></path><path d="M3.5 0L21.5 0A3.5 3.5 0 0 1 25 3.5L25 10.5A3.5 3.5 0 0 1 21.5 14L3.5 14A3.5 3.5 0 0 1 0 10.5L0 3.5A3.5 3.5 0 0 1 3.5 0" transform="translate(434.5 8)" fill="#C54E83"></path><text dominant-baseline="central" text-anchor="start" x="30" y="7" transform="translate(434.5 8)" fill="#333" style="font-size: 20px; font-family: Arial;">Hybrid</text><path d="M0 -3l86 0l0 20l-86 0Z" transform="translate(434.5 8)" fill="transparent"></path><path d="M3.5 0L21.5 0A3.5 3.5 0 0 1 25 3.5L25 10.5A3.5 3.5 0 0 1 21.5 14L3.5 14A3.5 3.5 0 0 1 0 10.5L0 3.5A3.5 3.5 0 0 1 3.5 0" transform="translate(530.5 8)" fill="#4EBABC"></path><text dominant-baseline="central" text-anchor="start" x="30" y="7" transform="translate(530.5 8)" fill="#333" style="font-size: 20px; font-family: Arial;">Complex</text><path d="M0 -3l106 0l0 20l-106 0Z" transform="translate(530.5 8)" fill="transparent"></path><path d="M-5 -5l10 0l0 10l-10 0Z" transform="translate(450 5)" fill="rgb(0,0,0)" fill-opacity="0" stroke="#ccc" stroke-width="0"></path></g></svg>
