<svg xmlns="http://www.w3.org/2000/svg" xmlns:xlink="http://www.w3.org/1999/xlink" version="1.1" baseProfile="full" width="900" height="500" style="position: absolute; left: 0px; top: 0px;"><rect width="900" height="500" x="0" y="0" fill="#fff"></rect><g><path d="M90 430L90 60" fill="transparent" stroke="black" stroke-width="2" stroke-linecap="round"></path><text dominant-baseline="central" text-anchor="middle" xml:space="preserve" y="-30" transform="matrix(0,-1,1,0,50,245)" fill="black" style="font-size: 20px; font-family: Arial;">Percentage of IGPs carrying</text><text dominant-baseline="central" text-anchor="middle" xml:space="preserve" y="-10" transform="matrix(0,-1,1,0,50,245)" fill="black" style="font-size: 20px; font-family: Arial;">each core structures (per term)</text><path d="M810 430L810 60" fill="transparent" stroke="black" stroke-width="2" stroke-linecap="round"></path><path d="M90 430L810 430" fill="transparent" stroke="black" stroke-width="2" stroke-linecap="round"></path><path d="M90 60L810 60" fill="transparent" stroke="black" stroke-width="2" stroke-linecap="round"></path><path d="M90 430L82 430" fill="transparent" stroke="black" stroke-width="2"></path><path d="M90 356L82 356" fill="transparent" stroke="black" stroke-width="2"></path><path d="M90 282L82 282" fill="transparent" stroke="black" stroke-width="2"></path><path d="M90 208L82 208" fill="transparent" stroke="black" stroke-width="2"></path><path d="M90 134L82 134" fill="transparent" stroke="black" stroke-width="2"></path><path d="M90 60L82 60" fill="transparent" stroke="black" stroke-width="2"></path><path d="M90 430L90 438" fill="transparent" stroke="black" stroke-width="2"></path><path d="M162 430L162 438" fill="transparent" stroke="black" stroke-width="2"></path><path d="M234 430L234 438" fill="transparent" stroke="black" stroke-width="2"></path><path d="M306 430L306 438" fill="transparent" stroke="black" stroke-width="2"></path><path d="M378 430L378 438" fill="transparent" stroke="black" stroke-width="2"></path><path d="M450 430L450 438" fill="transparent" stroke="black" stroke-width="2"></path><path d="M522 430L522 438" fill="transparent" stroke="black" stroke-width="2"></path><path d="M594 430L594 438" fill="transparent" stroke="black" stroke-width="2"></path><path d="M666 430L666 438" fill="transparent" stroke="black" stroke-width="2"></path><path d="M738 430L738 438" fill="transparent" stroke="black" stroke-width="2"></path><path d="M810 430L810 438" fill="transparent" stroke="black" stroke-width="2"></path><text dominant-baseline="central" text-anchor="end" transform="translate(75 430)" fill="black" style="font-size: 20px; font-family: Arial;">0</text><text dominant-baseline="central" text-anchor="end" transform="translate(75 356)" fill="black" style="font-size: 20px; font-family: Arial;">0.2</text><text dominant-baseline="central" text-anchor="end" transform="translate(75 282)" fill="black" style="font-size: 20px; font-family: Arial;">0.4</text><text dominant-baseline="central" text-anchor="end" transform="translate(75 208)" fill="black" style="font-size: 20px; font-family: Arial;">0.6</text><text dominant-baseline="central" text-anchor="end" transform="translate(75 134)" fill="black" style="font-size: 20px; font-family: Arial;">0.8</text><text dominant-baseline="central" text-anchor="end" transform="translate(75 60)" fill="black" style="font-size: 20px; font-family: Arial;">1</text><text dominant-baseline="central" text-anchor="start" transform="matrix(0.966,0.259,-0.259,0.966,126,445)" fill="black" style="font-size: 10px; font-family: Arial;">Neurogenesis</text><text dominant-baseline="central" text-anchor="start" xml:space="preserve" transform="matrix(0.966,0.259,-0.259,0.966,198,445)" fill="black" style="font-size: 10px; font-family: Arial;">Neuron development</text><text dominant-baseline="central" text-anchor="start" xml:space="preserve" y="-5" transform="matrix(0.966,0.259,-0.259,0.966,270,445)" fill="black" style="font-size: 10px; font-family: Arial;">Generation of neuron</text><text dominant-baseline="central" text-anchor="start" y="5" transform="matrix(0.966,0.259,-0.259,0.966,270,445)" fill="black" style="font-size: 10px; font-family: Arial;">s</text><text dominant-baseline="central" text-anchor="start" xml:space="preserve" y="-5" transform="matrix(0.966,0.259,-0.259,0.966,342,445)" fill="black" style="font-size: 10px; font-family: Arial;">Neuron differentiati</text><text dominant-baseline="central" text-anchor="start" y="5" transform="matrix(0.966,0.259,-0.259,0.966,342,445)" fill="black" style="font-size: 10px; font-family: Arial;">on</text><text dominant-baseline="central" text-anchor="start" xml:space="preserve" y="-5" transform="matrix(0.966,0.259,-0.259,0.966,414,445)" fill="black" style="font-size: 10px; font-family: Arial;">Cell junction organi</text><text dominant-baseline="central" text-anchor="start" y="5" transform="matrix(0.966,0.259,-0.259,0.966,414,445)" fill="black" style="font-size: 10px; font-family: Arial;">zation</text><text dominant-baseline="central" text-anchor="start" xml:space="preserve" y="-5" transform="matrix(0.966,0.259,-0.259,0.966,486,445)" fill="black" style="font-size: 10px; font-family: Arial;">Nervous system devel</text><text dominant-baseline="central" text-anchor="start" y="5" transform="matrix(0.966,0.259,-0.259,0.966,486,445)" fill="black" style="font-size: 10px; font-family: Arial;">opment</text><text dominant-baseline="central" text-anchor="start" xml:space="preserve" y="-5" transform="matrix(0.966,0.259,-0.259,0.966,558,445)" fill="black" style="font-size: 10px; font-family: Arial;">Neuron projection de</text><text dominant-baseline="central" text-anchor="start" y="5" transform="matrix(0.966,0.259,-0.259,0.966,558,445)" fill="black" style="font-size: 10px; font-family: Arial;">velopment</text><text dominant-baseline="central" text-anchor="start" xml:space="preserve" transform="matrix(0.966,0.259,-0.259,0.966,630,445)" fill="black" style="font-size: 10px; font-family: Arial;">Synapse organization</text><text dominant-baseline="central" text-anchor="start" xml:space="preserve" y="-5" transform="matrix(0.966,0.259,-0.259,0.966,702,445)" fill="black" style="font-size: 10px; font-family: Arial;">Neuron projection mo</text><text dominant-baseline="central" text-anchor="start" y="5" transform="matrix(0.966,0.259,-0.259,0.966,702,445)" fill="black" style="font-size: 10px; font-family: Arial;">rphogenesis</text><text dominant-baseline="central" text-anchor="start" xml:space="preserve" y="-10" transform="matrix(0.966,0.259,-0.259,0.966,774,445)" fill="black" style="font-size: 10px; font-family: Arial;">Plasma membrane boun</text><text dominant-baseline="central" text-anchor="start" xml:space="preserve" transform="matrix(0.966,0.259,-0.259,0.966,774,445)" fill="black" style="font-size: 10px; font-family: Arial;">ded cell projection </text><text dominant-baseline="central" text-anchor="start" y="10" transform="matrix(0.966,0.259,-0.259,0.966,774,445)" fill="black" style="font-size: 10px; font-family: Arial;">morphogenesis</text><path d="M104.4 430l43.2 0l0 -361.3953l-43.2 0Z" fill="#4E2A5C"></path><path d="M176.4 430l43.2 0l0 -360.2632l-43.2 0Z" fill="#4E2A5C"></path><path d="M248.4 430l43.2 0l0 -360.9756l-43.2 0Z" fill="#4E2A5C"></path><path d="M320.4 430l43.2 0l0 -360.75l-43.2 0Z" fill="#4E2A5C"></path><path d="M392.4 430l43.2 0l0 -357.6667l-43.2 0Z" fill="#4E2A5C"></path><path d="M464.4 430l43.2 0l0 -361.3953l-43.2 0Z" fill="#4E2A5C"></path><path d="M536.4 430l43.2 0l0 -370l-43.2 0Z" fill="#4E2A5C"></path><path d="M608.4 430l43.2 0l0 -355.2l-43.2 0Z" fill="#4E2A5C"></path><path d="M680.4 430l43.2 0l0 -370l-43.2 0Z" fill="#4E2A5C"></path><path d="M752.4 430l43.2 0l0 -370l-43.2 0Z" fill="#4E2A5C"></path><path d="M104.4 68.6047l43.2 0l0 -8.6047l-43.2 0Z" fill="#C54E83"></path><path d="M176.4 69.7368l43.2 0l0 -9.7368l-43.2 0Z" fill="#C54E83"></path><path d="M248.4 69.0244l43.2 0l0 -9.0244l-43.2 0Z" fill="#C54E83"></path><path d="M320.4 69.25l43.2 0l0 -9.25l-43.2 0Z" fill="#C54E83"></path><path d="M392.4 72.3333l43.2 0l0 -12.3333l-43.2 0Z" fill="#C54E83"></path><path d="M464.4 68.6047l43.2 0l0 -8.6047l-43.2 0Z" fill="#C54E83"></path><path d="M536.4 60l43.2 0l0 0l-43.2 0Z" fill="#C54E83"></path><path d="M608.4 74.8l43.2 0l0 -14.8l-43.2 0Z" fill="#C54E83"></path><path d="M680.4 60l43.2 0l0 0l-43.2 0Z" fill="#C54E83"></path><path d="M752.4 60l43.2 0l0 0l-43.2 0Z" fill="#C54E83"></path><path d="M-5 -5l102 0l0 30l-102 0Z" transform="translate(404 5)" fill="transparent" stroke="#ccc" stroke-width="0"></path><path d="M3.5 0L21.5 0A3.5 3.5 0 0 1 25 3.5L25 10.5A3.5 3.5 0 0 1 21.5 14L3.5 14A3.5 3.5 0 0 1 0 10.5L0 3.5A3.5 3.5 0 0 1 3.5 0" transform="translate(404 8)" fill="#4E2A5C"></path><text dominant-baseline="central" text-anchor="start" x="30" y="7" transform="translate(404 8)" fill="#333" style="font-size: 20px; font-family: Arial;">0</text><path d="M0 -3l41 0l0 20l-41 0Z" transform="translate(404 8)" fill="transparent"></path><path d="M3.5 0L21.5 0A3.5 3.5 0 0 1 25 3.5L25 10.5A3.5 3.5 0 0 1 21.5 14L3.5 14A3.5 3.5 0 0 1 0 10.5L0 3.5A3.5 3.5 0 0 1 3.5 0" transform="translate(455 8)" fill="#C54E83"></path><text dominant-baseline="central" text-anchor="start" x="30" y="7" transform="translate(455 8)" fill="#333" style="font-size: 20px; font-family: Arial;">1</text><path d="M0 -3l41 0l0 20l-41 0Z" transform="translate(455 8)" fill="transparent"></path><path d="M-5 -5l10 0l0 10l-10 0Z" transform="translate(450 5)" fill="rgb(0,0,0)" fill-opacity="0" stroke="#ccc" stroke-width="0"></path></g></svg>
