<svg xmlns="http://www.w3.org/2000/svg" xmlns:xlink="http://www.w3.org/1999/xlink" version="1.1" baseProfile="full" width="900" height="500" style="position: absolute; left: 0px; top: 0px;"><rect width="900" height="500" x="0" y="0" fill="#fff"></rect><g><path d="M90 430.5L810 430.5" fill="transparent" stroke="grey" stroke-width="0.5"></path><path d="M90 384.5L810 384.5" fill="transparent" stroke="grey" stroke-width="0.5"></path><path d="M90 337.5L810 337.5" fill="transparent" stroke="grey" stroke-width="0.5"></path><path d="M90 291.5L810 291.5" fill="transparent" stroke="grey" stroke-width="0.5"></path><path d="M90 245.5L810 245.5" fill="transparent" stroke="grey" stroke-width="0.5"></path><path d="M90 199.5L810 199.5" fill="transparent" stroke="grey" stroke-width="0.5"></path><path d="M90 152.5L810 152.5" fill="transparent" stroke="grey" stroke-width="0.5"></path><path d="M90 106.5L810 106.5" fill="transparent" stroke="grey" stroke-width="0.5"></path><path d="M90 60.5L810 60.5" fill="transparent" stroke="grey" stroke-width="0.5"></path><path d="M90.5 60L90.5 430" fill="transparent" stroke="grey" stroke-width="0.5"></path><path d="M270.5 60L270.5 430" fill="transparent" stroke="grey" stroke-width="0.5"></path><path d="M450.5 60L450.5 430" fill="transparent" stroke="grey" stroke-width="0.5"></path><path d="M630.5 60L630.5 430" fill="transparent" stroke="grey" stroke-width="0.5"></path><path d="M810.5 60L810.5 430" fill="transparent" stroke="grey" stroke-width="0.5"></path><path d="M90 430L90 60" fill="transparent" stroke="black" stroke-width="2" stroke-linecap="round"></path><text dominant-baseline="central" text-anchor="middle" xml:space="preserve" y="-10" transform="matrix(0,-1,1,0,40,245)" fill="black" style="font-size: 20px; font-family: Arial;">Up and downregulated(-) IGPs counts</text><path d="M810 430L810 60" fill="transparent" stroke="black" stroke-width="2" stroke-linecap="round"></path><path d="M90 245L810 245" fill="transparent" stroke="black" stroke-width="2" stroke-linecap="round"></path><text dominant-baseline="central" text-anchor="middle" xml:space="preserve" y="10" transform="translate(450 470)" fill="black" style="font-size: 20px; font-family: Arial;">IGPs containing different types of branches structures</text><path d="M90 60L810 60" fill="transparent" stroke="black" stroke-width="2" stroke-linecap="round"></path><path d="M90 430L810 430" fill="transparent" stroke="black" stroke-width="2" stroke-linecap="round"></path><path d="M90 430L82 430" fill="transparent" stroke="black" stroke-width="2"></path><path d="M90 384L82 384" fill="transparent" stroke="black" stroke-width="2"></path><path d="M90 338L82 338" fill="transparent" stroke="black" stroke-width="2"></path><path d="M90 292L82 292" fill="transparent" stroke="black" stroke-width="2"></path><path d="M90 245L82 245" fill="transparent" stroke="black" stroke-width="2"></path><path d="M90 199L82 199" fill="transparent" stroke="black" stroke-width="2"></path><path d="M90 153L82 153" fill="transparent" stroke="black" stroke-width="2"></path><path d="M90 107L82 107" fill="transparent" stroke="black" stroke-width="2"></path><path d="M90 60L82 60" fill="transparent" stroke="black" stroke-width="2"></path><path d="M90 245L90 253" fill="transparent" stroke="black" stroke-width="2"></path><path d="M270 245L270 253" fill="transparent" stroke="black" stroke-width="2"></path><path d="M450 245L450 253" fill="transparent" stroke="black" stroke-width="2"></path><path d="M630 245L630 253" fill="transparent" stroke="black" stroke-width="2"></path><path d="M810 245L810 253" fill="transparent" stroke="black" stroke-width="2"></path><text dominant-baseline="central" text-anchor="end" transform="translate(75 430)" fill="black" style="font-size: 20px; font-family: Arial;">-40</text><text dominant-baseline="central" text-anchor="end" transform="translate(75 383.75)" fill="black" style="font-size: 20px; font-family: Arial;">-30</text><text dominant-baseline="central" text-anchor="end" transform="translate(75 337.5)" fill="black" style="font-size: 20px; font-family: Arial;">-20</text><text dominant-baseline="central" text-anchor="end" transform="translate(75 291.25)" fill="black" style="font-size: 20px; font-family: Arial;">-10</text><text dominant-baseline="central" text-anchor="end" transform="translate(75 245)" fill="black" style="font-size: 20px; font-family: Arial;">0</text><text dominant-baseline="central" text-anchor="end" transform="translate(75 198.75)" fill="black" style="font-size: 20px; font-family: Arial;">10</text><text dominant-baseline="central" text-anchor="end" transform="translate(75 152.5)" fill="black" style="font-size: 20px; font-family: Arial;">20</text><text dominant-baseline="central" text-anchor="end" transform="translate(75 106.25)" fill="black" style="font-size: 20px; font-family: Arial;">30</text><text dominant-baseline="central" text-anchor="end" transform="translate(75 60)" fill="black" style="font-size: 20px; font-family: Arial;">40</text><text dominant-baseline="central" text-anchor="middle" y="10" transform="translate(180 445)" fill="black" style="font-size: 20px; font-family: Arial;">E2e</text><text dominant-baseline="central" text-anchor="middle" y="10" transform="translate(360 445)" fill="black" style="font-size: 20px; font-family: Arial;">E2F1fe</text><text dominant-baseline="central" text-anchor="middle" y="10" transform="translate(540 445)" fill="black" style="font-size: 20px; font-family: Arial;">E2F1fF5fe</text><text dominant-baseline="central" text-anchor="middle" y="10" transform="translate(720 445)" fill="black" style="font-size: 20px; font-family: Arial;">E2F1G3gfe</text><path d="M97.2 245l72 0l0 -152.625l-72 0Z" fill="#0F6360"></path><path d="M277.2 245l72 0l0 -50.875l-72 0Z" fill="#0F6360"></path><path d="M457.2 245l72 0l0 -23.125l-72 0Z" fill="#0F6360"></path><path d="M637.2 245l72 0l0 -9.25l-72 0Z" fill="#0F6360"></path><path d="M190.8 245l72 0l0 185l-72 0Z" fill="#F1C233"></path><path d="M370.8 245l72 0l0 115.625l-72 0Z" fill="#F1C233"></path><path d="M550.8 245l72 0l0 92.5l-72 0Z" fill="#F1C233"></path><path d="M730.8 245l72 0l0 78.625l-72 0Z" fill="#F1C233"></path><path d="M-5 -5l291 0l0 60l-291 0Z" transform="translate(309.5 5)" fill="transparent" stroke="#ccc" stroke-width="0"></path><path d="M3.5 0L21.5 0A3.5 3.5 0 0 1 25 3.5L25 10.5A3.5 3.5 0 0 1 21.5 14L3.5 14A3.5 3.5 0 0 1 0 10.5L0 3.5A3.5 3.5 0 0 1 3.5 0" transform="translate(309.5 8)" fill="#0F6360"></path><text dominant-baseline="central" text-anchor="start" x="30" y="7" transform="translate(309.5 8)" fill="#333" style="font-size: 20px; font-family: Arial;">Up_data_Branches_count</text><path d="M0 -3l255 0l0 20l-255 0Z" transform="translate(309.5 8)" fill="transparent"></path><path d="M3.5 0L21.5 0A3.5 3.5 0 0 1 25 3.5L25 10.5A3.5 3.5 0 0 1 21.5 14L3.5 14A3.5 3.5 0 0 1 0 10.5L0 3.5A3.5 3.5 0 0 1 3.5 0" transform="translate(309.5 38)" fill="#F1C233"></path><text dominant-baseline="central" text-anchor="start" x="30" y="7" transform="translate(309.5 38)" fill="#333" style="font-size: 20px; font-family: Arial;">Down_data_Branches_count</text><path d="M0 -3l281 0l0 20l-281 0Z" transform="translate(309.5 38)" fill="transparent"></path><path d="M-5 -5l10 0l0 10l-10 0Z" transform="translate(450 5)" fill="rgb(0,0,0)" fill-opacity="0" stroke="#ccc" stroke-width="0"></path></g></svg>
