<svg xmlns="http://www.w3.org/2000/svg" xmlns:xlink="http://www.w3.org/1999/xlink" version="1.1" baseProfile="full" width="900" height="500" style="position: absolute; left: 0px; top: 0px;"><rect width="900" height="500" x="0" y="0" fill="#fff"></rect><g><path d="M480 250A30 30 0 1 1 480 249.997M450 250A0 0 0 1 0 450 250M510 250A60 60 0 1 1 510 249.994M480 250A30 30 0 1 0 480 250.003M540 250A90 90 0 1 1 540 249.991M510 250A60 60 0 1 0 510 250.006M570 250A120 120 0 1 1 570 249.988M540 250A90 90 0 1 0 540 250.009M600 250A150 150 0 1 1 600 249.985M570 250A120 120 0 1 0 570 250.012M600 250A150 150 0 1 1 600 249.985M600 250A150 150 0 1 0 600 250.015" fill="url(#zr0-g0)" fill-opacity="0.2"></path><path d="M450 250A0 0 0 1 1 450 250M480 250A30 30 0 1 1 480 249.997M510 250A60 60 0 1 1 510 249.994M540 250A90 90 0 1 1 540 249.991M570 250A120 120 0 1 1 570 249.988M600 250A150 150 0 1 1 600 249.985M600 250A150 150 0 1 1 600 249.985" fill="transparent" stroke="#001F78" stroke-width="3" stroke-opacity="0.5" stroke-dasharray="12,6"></path><path d="M450 250L450 100" fill="transparent" stroke="grey" stroke-width="2" stroke-opacity="0.3" stroke-linecap="round"></path><text dominant-baseline="central" text-anchor="middle" xml:space="preserve" y="-40" transform="translate(450 85)" fill="black" style="font-size: 15px; font-family: Arial; font-weight: bold;">Regulation of s</text><text dominant-baseline="central" text-anchor="middle" xml:space="preserve" y="-24" transform="translate(450 85)" fill="black" style="font-size: 15px; font-family: Arial; font-weight: bold;">ynapse organiza</text><text dominant-baseline="central" text-anchor="middle" y="-8" transform="translate(450 85)" fill="black" style="font-size: 15px; font-family: Arial; font-weight: bold;">tion</text><path d="M450 250L320.0962 175" fill="transparent" stroke="grey" stroke-width="2" stroke-opacity="0.3" stroke-linecap="round"></path><text dominant-baseline="central" text-anchor="end" xml:space="preserve" y="-16" transform="translate(307.1058 167.5)" fill="black" style="font-size: 15px; font-family: Arial; font-weight: bold;">Regulation of s</text><text dominant-baseline="central" text-anchor="end" xml:space="preserve" transform="translate(307.1058 167.5)" fill="black" style="font-size: 15px; font-family: Arial; font-weight: bold;">ynapse structur</text><text dominant-baseline="central" text-anchor="end" xml:space="preserve" y="16" transform="translate(307.1058 167.5)" fill="black" style="font-size: 15px; font-family: Arial; font-weight: bold;">e or activity</text><path d="M450 250L320.0962 325" fill="transparent" stroke="grey" stroke-width="2" stroke-opacity="0.3" stroke-linecap="round"></path><text dominant-baseline="central" text-anchor="end" xml:space="preserve" y="-8" transform="translate(307.1058 332.5)" fill="black" style="font-size: 15px; font-family: Arial; font-weight: bold;">Cellular compon</text><text dominant-baseline="central" text-anchor="end" xml:space="preserve" y="8" transform="translate(307.1058 332.5)" fill="black" style="font-size: 15px; font-family: Arial; font-weight: bold;">ent maintenance</text><path d="M450 250L450 400" fill="transparent" stroke="grey" stroke-width="2" stroke-opacity="0.3" stroke-linecap="round"></path><text dominant-baseline="central" text-anchor="middle" xml:space="preserve" y="8" transform="translate(450 415)" fill="black" style="font-size: 15px; font-family: Arial; font-weight: bold;">Central nervous</text><text dominant-baseline="central" text-anchor="middle" xml:space="preserve" y="24" transform="translate(450 415)" fill="black" style="font-size: 15px; font-family: Arial; font-weight: bold;"> system myelina</text><text dominant-baseline="central" text-anchor="middle" y="40" transform="translate(450 415)" fill="black" style="font-size: 15px; font-family: Arial; font-weight: bold;">tion</text><path d="M450 250L579.9038 325" fill="transparent" stroke="grey" stroke-width="2" stroke-opacity="0.3" stroke-linecap="round"></path><text dominant-baseline="central" text-anchor="start" xml:space="preserve" y="-16" transform="translate(592.8942 332.5)" fill="black" style="font-size: 15px; font-family: Arial; font-weight: bold;">Axon ensheathme</text><text dominant-baseline="central" text-anchor="start" xml:space="preserve" transform="translate(592.8942 332.5)" fill="black" style="font-size: 15px; font-family: Arial; font-weight: bold;">nt in central n</text><text dominant-baseline="central" text-anchor="start" xml:space="preserve" y="16" transform="translate(592.8942 332.5)" fill="black" style="font-size: 15px; font-family: Arial; font-weight: bold;">ervous system</text><path d="M450 250L579.9038 175" fill="transparent" stroke="grey" stroke-width="2" stroke-opacity="0.3" stroke-linecap="round"></path><text dominant-baseline="central" text-anchor="start" xml:space="preserve" y="-24" transform="translate(592.8942 167.5)" fill="black" style="font-size: 15px; font-family: Arial; font-weight: bold;">Enzyme-linked r</text><text dominant-baseline="central" text-anchor="start" xml:space="preserve" y="-8" transform="translate(592.8942 167.5)" fill="black" style="font-size: 15px; font-family: Arial; font-weight: bold;">eceptor protein</text><text dominant-baseline="central" text-anchor="start" xml:space="preserve" y="8" transform="translate(592.8942 167.5)" fill="black" style="font-size: 15px; font-family: Arial; font-weight: bold;"> signaling path</text><text dominant-baseline="central" text-anchor="start" y="24" transform="translate(592.8942 167.5)" fill="black" style="font-size: 15px; font-family: Arial; font-weight: bold;">way</text><path d="M450 121.6578L338.8524 185.8289L335.4842 316.1157L450 379.8701L562.4708 314.9351L568.0944 181.8182L450 121.6578" fill="transparent" stroke="#DDC122" stroke-width="3" stroke-linejoin="round"></path><path d="M450 121.6578L338.8524 185.8289L335.4842 316.1157L450 379.8701L562.4708 314.9351L568.0944 181.8182L450 121.6578Z" fill="#DDC122" fill-opacity="0.5"></path><path d="M450 228.6096L431.4754 239.3048L407.0566 274.7934L450 301.9481L494.9883 275.974L473.6189 236.3636L450 228.6096" fill="transparent" stroke="#C523BB" stroke-width="3" stroke-linejoin="round"></path><path d="M450 228.6096L431.4754 239.3048L407.0566 274.7934L450 301.9481L494.9883 275.974L473.6189 236.3636L450 228.6096Z" fill="#C523BB" fill-opacity="0.5"></path><path d="M450 217.9144L422.2131 233.9572L450 250L465.7459 240.9091L450 217.9144" fill="transparent" stroke="#7ECD30" stroke-width="3" stroke-linejoin="round"></path><path d="M450 217.9144L422.2131 233.9572L450 250L465.7459 240.9091L450 217.9144Z" fill="#7ECD30" fill-opacity="0.5"></path><path d="M-5 -5l289 0l0 24l-289 0Z" transform="translate(310.5 5)" fill="transparent" stroke="#ccc" stroke-width="0"></path><path d="M3.5 0L21.5 0A3.5 3.5 0 0 1 25 3.5L25 10.5A3.5 3.5 0 0 1 21.5 14L3.5 14A3.5 3.5 0 0 1 0 10.5L0 3.5A3.5 3.5 0 0 1 3.5 0" transform="translate(310.5 5)" fill="#DDC122"></path><text dominant-baseline="central" text-anchor="start" xml:space="preserve" x="30" y="7" transform="translate(310.5 5)" fill="#333" style="font-size: 12px; font-family: Arial;">Oligo mannose</text><path d="M0 0l115 0l0 14l-115 0Z" transform="translate(310.5 5)" fill="transparent"></path><path d="M3.5 0L21.5 0A3.5 3.5 0 0 1 25 3.5L25 10.5A3.5 3.5 0 0 1 21.5 14L3.5 14A3.5 3.5 0 0 1 0 10.5L0 3.5A3.5 3.5 0 0 1 3.5 0" transform="translate(435.5 5)" fill="#C523BB"></path><text dominant-baseline="central" text-anchor="start" x="30" y="7" transform="translate(435.5 5)" fill="#333" style="font-size: 12px; font-family: Arial;">Hybrid</text><path d="M0 0l65 0l0 14l-65 0Z" transform="translate(435.5 5)" fill="transparent"></path><path d="M3.5 0L21.5 0A3.5 3.5 0 0 1 25 3.5L25 10.5A3.5 3.5 0 0 1 21.5 14L3.5 14A3.5 3.5 0 0 1 0 10.5L0 3.5A3.5 3.5 0 0 1 3.5 0" transform="translate(510.5 5)" fill="#7ECD30"></path><text dominant-baseline="central" text-anchor="start" x="30" y="7" transform="translate(510.5 5)" fill="#333" style="font-size: 12px; font-family: Arial;">Complex</text><path d="M0 0l79 0l0 14l-79 0Z" transform="translate(510.5 5)" fill="transparent"></path><path d="M-5 -5l10 0l0 10l-10 0Z" transform="translate(450 5)" fill="rgb(0,0,0)" fill-opacity="0" stroke="#ccc" stroke-width="0"></path></g><defs><radialGradient gradientUnits="objectBoundingBox" cx="0.5" cy="0.5" r="0.5" id="zr0-g0"><stop offset="0%" stop-color="white"></stop><stop offset="100%" stop-color="white"></stop></radialGradient></defs></svg>
