<svg xmlns="http://www.w3.org/2000/svg" xmlns:xlink="http://www.w3.org/1999/xlink" version="1.1" baseProfile="full" width="1600" height="800" style="position: absolute; left: 0px; top: 0px;"><rect width="1600" height="800" x="0" y="0" fill="#fff"></rect><g><path d="M480 560L480 60" fill="transparent" stroke="black" stroke-width="2" stroke-linecap="round"></path><text dominant-baseline="central" text-anchor="middle" xml:space="preserve" y="-15" transform="matrix(0,-1,1,0,410,310)" fill="black" style="font-size: 30px; font-family: Arial;">Number of glycan compositions</text><path d="M1440 560L1440 60" fill="transparent" stroke="black" stroke-width="2" stroke-linecap="round"></path><path d="M480 560L1440 560" fill="transparent" stroke="black" stroke-width="2" stroke-linecap="round"></path><text dominant-baseline="central" text-anchor="middle" y="15" transform="translate(960 700)" fill="black" style="font-size: 30px; font-family: Arial;">Glycoprotein</text><path d="M480 60L1440 60" fill="transparent" stroke="black" stroke-width="2" stroke-linecap="round"></path><path d="M480 560L472 560" fill="transparent" stroke="black" stroke-width="2"></path><path d="M480 460L472 460" fill="transparent" stroke="black" stroke-width="2"></path><path d="M480 360L472 360" fill="transparent" stroke="black" stroke-width="2"></path><path d="M480 260L472 260" fill="transparent" stroke="black" stroke-width="2"></path><path d="M480 160L472 160" fill="transparent" stroke="black" stroke-width="2"></path><path d="M480 60L472 60" fill="transparent" stroke="black" stroke-width="2"></path><path d="M480 560L480 568" fill="transparent" stroke="black" stroke-width="2"></path><path d="M672 560L672 568" fill="transparent" stroke="black" stroke-width="2"></path><path d="M864 560L864 568" fill="transparent" stroke="black" stroke-width="2"></path><path d="M1056 560L1056 568" fill="transparent" stroke="black" stroke-width="2"></path><path d="M1248 560L1248 568" fill="transparent" stroke="black" stroke-width="2"></path><path d="M1440 560L1440 568" fill="transparent" stroke="black" stroke-width="2"></path><text dominant-baseline="central" text-anchor="end" transform="translate(465 560)" fill="black" style="font-size: 30px; font-family: Arial;">0</text><text dominant-baseline="central" text-anchor="end" transform="translate(465 460)" fill="black" style="font-size: 30px; font-family: Arial;">300</text><text dominant-baseline="central" text-anchor="end" transform="translate(465 360)" fill="black" style="font-size: 30px; font-family: Arial;">600</text><text dominant-baseline="central" text-anchor="end" transform="translate(465 260)" fill="black" style="font-size: 30px; font-family: Arial;">900</text><text dominant-baseline="central" text-anchor="end" transform="translate(465 160)" fill="black" style="font-size: 30px; font-family: Arial;">1,200</text><text dominant-baseline="central" text-anchor="end" transform="translate(465 60)" fill="black" style="font-size: 30px; font-family: Arial;">1,500</text><text dominant-baseline="central" text-anchor="start" transform="matrix(0.707,0.707,-0.707,0.707,576,585)" fill="black" style="font-size: 30px; font-family: Arial;">Ighg2</text><text dominant-baseline="central" text-anchor="start" transform="matrix(0.707,0.707,-0.707,0.707,768,585)" fill="black" style="font-size: 30px; font-family: Arial;">Ighg1</text><text dominant-baseline="central" text-anchor="start" transform="matrix(0.707,0.707,-0.707,0.707,960,585)" fill="black" style="font-size: 30px; font-family: Arial;">Ighg3</text><text dominant-baseline="central" text-anchor="start" transform="matrix(0.707,0.707,-0.707,0.707,1152,585)" fill="black" style="font-size: 30px; font-family: Arial;">Ighg4</text><text dominant-baseline="central" text-anchor="start" transform="matrix(0.707,0.707,-0.707,0.707,1344,585)" fill="black" style="font-size: 30px; font-family: Arial;">Ighg2;Ighg4</text><path d="M518.4 560l115.2 0l0 -449.6667l-115.2 0Z" fill="#159947"></path><path d="M710.4 560l115.2 0l0 -230.6667l-115.2 0Z" fill="#159947"></path><path d="M902.4 560l115.2 0l0 -31l-115.2 0Z" fill="#159947"></path><path d="M1094.4 560l115.2 0l0 -24l-115.2 0Z" fill="#159947"></path><path d="M1286.4 560l115.2 0l0 -0.6667l-115.2 0Z" fill="#159947"></path><path d="M-5 -5l262 0l0 40l-262 0Z" transform="translate(674 5)" fill="transparent" stroke="#ccc" stroke-width="0"></path><path d="M3.5 0L21.5 0A3.5 3.5 0 0 1 25 3.5L25 10.5A3.5 3.5 0 0 1 21.5 14L3.5 14A3.5 3.5 0 0 1 0 10.5L0 3.5A3.5 3.5 0 0 1 3.5 0" transform="translate(674 13)" fill="#159947"></path><text dominant-baseline="central" text-anchor="start" xml:space="preserve" x="30" y="7" transform="translate(674 13)" fill="#333" style="font-size: 30px; font-family: Arial;">Count of glycans</text><path d="M0 -8l252 0l0 30l-252 0Z" transform="translate(674 13)" fill="transparent"></path><path d="M-5 -5l10 0l0 10l-10 0Z" transform="translate(800 5)" fill="rgb(0,0,0)" fill-opacity="0" stroke="#ccc" stroke-width="0"></path></g></svg>
