<svg xmlns="http://www.w3.org/2000/svg" xmlns:xlink="http://www.w3.org/1999/xlink" version="1.1" baseProfile="full" width="900" height="500" style="position: absolute; left: 0px; top: 0px;"><rect width="900" height="500" x="0" y="0" fill="#fff"></rect><g><path d="M90 430L90 60" fill="transparent" stroke="black" stroke-width="2" stroke-linecap="round"></path><text dominant-baseline="central" text-anchor="middle" xml:space="preserve" y="-30" transform="matrix(0,-1,1,0,50,245)" fill="black" style="font-size: 20px; font-family: Arial;">Percentage of IGPs carrying</text><text dominant-baseline="central" text-anchor="middle" xml:space="preserve" y="-10" transform="matrix(0,-1,1,0,50,245)" fill="black" style="font-size: 20px; font-family: Arial;">each core structures (per term)</text><path d="M810 430L810 60" fill="transparent" stroke="black" stroke-width="2" stroke-linecap="round"></path><path d="M90 430L810 430" fill="transparent" stroke="black" stroke-width="2" stroke-linecap="round"></path><path d="M90 60L810 60" fill="transparent" stroke="black" stroke-width="2" stroke-linecap="round"></path><path d="M90 430L82 430" fill="transparent" stroke="black" stroke-width="2"></path><path d="M90 356L82 356" fill="transparent" stroke="black" stroke-width="2"></path><path d="M90 282L82 282" fill="transparent" stroke="black" stroke-width="2"></path><path d="M90 208L82 208" fill="transparent" stroke="black" stroke-width="2"></path><path d="M90 134L82 134" fill="transparent" stroke="black" stroke-width="2"></path><path d="M90 60L82 60" fill="transparent" stroke="black" stroke-width="2"></path><path d="M90 430L90 438" fill="transparent" stroke="black" stroke-width="2"></path><path d="M162 430L162 438" fill="transparent" stroke="black" stroke-width="2"></path><path d="M234 430L234 438" fill="transparent" stroke="black" stroke-width="2"></path><path d="M306 430L306 438" fill="transparent" stroke="black" stroke-width="2"></path><path d="M378 430L378 438" fill="transparent" stroke="black" stroke-width="2"></path><path d="M450 430L450 438" fill="transparent" stroke="black" stroke-width="2"></path><path d="M522 430L522 438" fill="transparent" stroke="black" stroke-width="2"></path><path d="M594 430L594 438" fill="transparent" stroke="black" stroke-width="2"></path><path d="M666 430L666 438" fill="transparent" stroke="black" stroke-width="2"></path><path d="M738 430L738 438" fill="transparent" stroke="black" stroke-width="2"></path><path d="M810 430L810 438" fill="transparent" stroke="black" stroke-width="2"></path><text dominant-baseline="central" text-anchor="end" transform="translate(75 430)" fill="black" style="font-size: 20px; font-family: Arial;">0</text><text dominant-baseline="central" text-anchor="end" transform="translate(75 356)" fill="black" style="font-size: 20px; font-family: Arial;">0.2</text><text dominant-baseline="central" text-anchor="end" transform="translate(75 282)" fill="black" style="font-size: 20px; font-family: Arial;">0.4</text><text dominant-baseline="central" text-anchor="end" transform="translate(75 208)" fill="black" style="font-size: 20px; font-family: Arial;">0.6</text><text dominant-baseline="central" text-anchor="end" transform="translate(75 134)" fill="black" style="font-size: 20px; font-family: Arial;">0.8</text><text dominant-baseline="central" text-anchor="end" transform="translate(75 60)" fill="black" style="font-size: 20px; font-family: Arial;">1</text><text dominant-baseline="central" text-anchor="start" xml:space="preserve" transform="matrix(0.966,0.259,-0.259,0.966,126,445)" fill="black" style="font-size: 10px; font-family: Arial;">Cell junction</text><text dominant-baseline="central" text-anchor="start" transform="matrix(0.966,0.259,-0.259,0.966,198,445)" fill="black" style="font-size: 10px; font-family: Arial;">Synapse</text><text dominant-baseline="central" text-anchor="start" transform="matrix(0.966,0.259,-0.259,0.966,270,445)" fill="black" style="font-size: 10px; font-family: Arial;">Membrane</text><text dominant-baseline="central" text-anchor="start" xml:space="preserve" y="-5" transform="matrix(0.966,0.259,-0.259,0.966,342,445)" fill="black" style="font-size: 10px; font-family: Arial;">Glutamatergic synaps</text><text dominant-baseline="central" text-anchor="start" y="5" transform="matrix(0.966,0.259,-0.259,0.966,342,445)" fill="black" style="font-size: 10px; font-family: Arial;">e</text><text dominant-baseline="central" text-anchor="start" xml:space="preserve" y="-5" transform="matrix(0.966,0.259,-0.259,0.966,414,445)" fill="black" style="font-size: 10px; font-family: Arial;">Plasma membrane regi</text><text dominant-baseline="central" text-anchor="start" y="5" transform="matrix(0.966,0.259,-0.259,0.966,414,445)" fill="black" style="font-size: 10px; font-family: Arial;">on</text><text dominant-baseline="central" text-anchor="start" xml:space="preserve" transform="matrix(0.966,0.259,-0.259,0.966,486,445)" fill="black" style="font-size: 10px; font-family: Arial;">Synaptic membrane</text><text dominant-baseline="central" text-anchor="start" xml:space="preserve" transform="matrix(0.966,0.259,-0.259,0.966,558,445)" fill="black" style="font-size: 10px; font-family: Arial;">Plasma membrane</text><text dominant-baseline="central" text-anchor="start" xml:space="preserve" transform="matrix(0.966,0.259,-0.259,0.966,630,445)" fill="black" style="font-size: 10px; font-family: Arial;">Cell periphery</text><text dominant-baseline="central" text-anchor="start" xml:space="preserve" transform="matrix(0.966,0.259,-0.259,0.966,702,445)" fill="black" style="font-size: 10px; font-family: Arial;">Cell surface</text><text dominant-baseline="central" text-anchor="start" transform="matrix(0.966,0.259,-0.259,0.966,774,445)" fill="black" style="font-size: 10px; font-family: Arial;">Axon</text><path d="M104.4 430l43.2 0l0 -335.8462l-43.2 0Z" fill="#4E2A5C"></path><path d="M176.4 430l43.2 0l0 -342.5926l-43.2 0Z" fill="#4E2A5C"></path><path d="M248.4 430l43.2 0l0 -339.1667l-43.2 0Z" fill="#4E2A5C"></path><path d="M320.4 430l43.2 0l0 -322.2581l-43.2 0Z" fill="#4E2A5C"></path><path d="M392.4 430l43.2 0l0 -329.7826l-43.2 0Z" fill="#4E2A5C"></path><path d="M464.4 430l43.2 0l0 -343.5714l-43.2 0Z" fill="#4E2A5C"></path><path d="M536.4 430l43.2 0l0 -342.9268l-43.2 0Z" fill="#4E2A5C"></path><path d="M608.4 430l43.2 0l0 -343.253l-43.2 0Z" fill="#4E2A5C"></path><path d="M680.4 430l43.2 0l0 -337.3529l-43.2 0Z" fill="#4E2A5C"></path><path d="M752.4 430l43.2 0l0 -318.9655l-43.2 0Z" fill="#4E2A5C"></path><path d="M104.4 94.1538l43.2 0l0 -22.7692l-43.2 0Z" fill="#C54E83"></path><path d="M176.4 87.4074l43.2 0l0 -13.7037l-43.2 0Z" fill="#C54E83"></path><path d="M248.4 90.8333l43.2 0l0 -19.2708l-43.2 0Z" fill="#C54E83"></path><path d="M320.4 107.7419l43.2 0l0 -23.871l-43.2 0Z" fill="#C54E83"></path><path d="M392.4 100.2174l43.2 0l0 -16.087l-43.2 0Z" fill="#C54E83"></path><path d="M464.4 86.4286l43.2 0l0 0l-43.2 0Z" fill="#C54E83"></path><path d="M536.4 87.0732l43.2 0l0 -13.5366l-43.2 0Z" fill="#C54E83"></path><path d="M608.4 86.747l43.2 0l0 -13.3735l-43.2 0Z" fill="#C54E83"></path><path d="M680.4 92.6471l43.2 0l0 -10.8824l-43.2 0Z" fill="#C54E83"></path><path d="M752.4 111.0345l43.2 0l0 -25.5172l-43.2 0Z" fill="#C54E83"></path><path d="M104.4 71.3846l43.2 0l0 -5.6923l-43.2 0Z" fill="#4EBABC"></path><path d="M176.4 73.7037l43.2 0l0 -6.8519l-43.2 0Z" fill="#4EBABC"></path><path d="M248.4 71.5625l43.2 0l0 -7.7083l-43.2 0Z" fill="#4EBABC"></path><path d="M320.4 83.871l43.2 0l0 -11.9355l-43.2 0Z" fill="#4EBABC"></path><path d="M392.4 84.1304l43.2 0l0 -16.087l-43.2 0Z" fill="#4EBABC"></path><path d="M464.4 86.4286l43.2 0l0 -13.2143l-43.2 0Z" fill="#4EBABC"></path><path d="M536.4 73.5366l43.2 0l0 -9.0244l-43.2 0Z" fill="#4EBABC"></path><path d="M608.4 73.3735l43.2 0l0 -8.9157l-43.2 0Z" fill="#4EBABC"></path><path d="M680.4 81.7647l43.2 0l0 -10.8824l-43.2 0Z" fill="#4EBABC"></path><path d="M752.4 85.5172l43.2 0l0 -12.7586l-43.2 0Z" fill="#4EBABC"></path><path d="M104.4 65.6923l43.2 0l0 -5.6923l-43.2 0Z" fill="#FFC599"></path><path d="M176.4 66.8519l43.2 0l0 -6.8519l-43.2 0Z" fill="#FFC599"></path><path d="M248.4 63.8542l43.2 0l0 -3.8542l-43.2 0Z" fill="#FFC599"></path><path d="M320.4 71.9355l43.2 0l0 -11.9355l-43.2 0Z" fill="#FFC599"></path><path d="M392.4 68.0435l43.2 0l0 -8.0435l-43.2 0Z" fill="#FFC599"></path><path d="M464.4 73.2143l43.2 0l0 -13.2143l-43.2 0Z" fill="#FFC599"></path><path d="M536.4 64.5122l43.2 0l0 -4.5122l-43.2 0Z" fill="#FFC599"></path><path d="M608.4 64.4578l43.2 0l0 -4.4578l-43.2 0Z" fill="#FFC599"></path><path d="M680.4 70.8824l43.2 0l0 -10.8824l-43.2 0Z" fill="#FFC599"></path><path d="M752.4 72.7586l43.2 0l0 -12.7586l-43.2 0Z" fill="#FFC599"></path><path d="M-5 -5l204 0l0 30l-204 0Z" transform="translate(353 5)" fill="transparent" stroke="#ccc" stroke-width="0"></path><path d="M3.5 0L21.5 0A3.5 3.5 0 0 1 25 3.5L25 10.5A3.5 3.5 0 0 1 21.5 14L3.5 14A3.5 3.5 0 0 1 0 10.5L0 3.5A3.5 3.5 0 0 1 3.5 0" transform="translate(353 8)" fill="#4E2A5C"></path><text dominant-baseline="central" text-anchor="start" x="30" y="7" transform="translate(353 8)" fill="#333" style="font-size: 20px; font-family: Arial;">0</text><path d="M0 -3l41 0l0 20l-41 0Z" transform="translate(353 8)" fill="transparent"></path><path d="M3.5 0L21.5 0A3.5 3.5 0 0 1 25 3.5L25 10.5A3.5 3.5 0 0 1 21.5 14L3.5 14A3.5 3.5 0 0 1 0 10.5L0 3.5A3.5 3.5 0 0 1 3.5 0" transform="translate(404 8)" fill="#C54E83"></path><text dominant-baseline="central" text-anchor="start" x="30" y="7" transform="translate(404 8)" fill="#333" style="font-size: 20px; font-family: Arial;">1</text><path d="M0 -3l41 0l0 20l-41 0Z" transform="translate(404 8)" fill="transparent"></path><path d="M3.5 0L21.5 0A3.5 3.5 0 0 1 25 3.5L25 10.5A3.5 3.5 0 0 1 21.5 14L3.5 14A3.5 3.5 0 0 1 0 10.5L0 3.5A3.5 3.5 0 0 1 3.5 0" transform="translate(455 8)" fill="#4EBABC"></path><text dominant-baseline="central" text-anchor="start" x="30" y="7" transform="translate(455 8)" fill="#333" style="font-size: 20px; font-family: Arial;">2</text><path d="M0 -3l41 0l0 20l-41 0Z" transform="translate(455 8)" fill="transparent"></path><path d="M3.5 0L21.5 0A3.5 3.5 0 0 1 25 3.5L25 10.5A3.5 3.5 0 0 1 21.5 14L3.5 14A3.5 3.5 0 0 1 0 10.5L0 3.5A3.5 3.5 0 0 1 3.5 0" transform="translate(506 8)" fill="#FFC599"></path><text dominant-baseline="central" text-anchor="start" x="30" y="7" transform="translate(506 8)" fill="#333" style="font-size: 20px; font-family: Arial;">3</text><path d="M0 -3l41 0l0 20l-41 0Z" transform="translate(506 8)" fill="transparent"></path><path d="M-5 -5l10 0l0 10l-10 0Z" transform="translate(450 5)" fill="rgb(0,0,0)" fill-opacity="0" stroke="#ccc" stroke-width="0"></path></g></svg>
