<svg xmlns="http://www.w3.org/2000/svg" xmlns:xlink="http://www.w3.org/1999/xlink" version="1.1" baseProfile="full" width="900" height="500" style="position: absolute; left: 0px; top: 0px;"><rect width="900" height="500" x="0" y="0" fill="#fff"></rect><g><path d="M90 430L90 60" fill="transparent" stroke="black" stroke-width="2" stroke-linecap="round"></path><text dominant-baseline="central" text-anchor="middle" xml:space="preserve" y="-30" transform="matrix(0,-1,1,0,50,245)" fill="black" style="font-size: 20px; font-family: Arial;">Percentage of IGPs carrying</text><text dominant-baseline="central" text-anchor="middle" xml:space="preserve" y="-10" transform="matrix(0,-1,1,0,50,245)" fill="black" style="font-size: 20px; font-family: Arial;">each core structures (per term)</text><path d="M810 430L810 60" fill="transparent" stroke="black" stroke-width="2" stroke-linecap="round"></path><path d="M90 430L810 430" fill="transparent" stroke="black" stroke-width="2" stroke-linecap="round"></path><path d="M90 60L810 60" fill="transparent" stroke="black" stroke-width="2" stroke-linecap="round"></path><path d="M90 430L82 430" fill="transparent" stroke="black" stroke-width="2"></path><path d="M90 356L82 356" fill="transparent" stroke="black" stroke-width="2"></path><path d="M90 282L82 282" fill="transparent" stroke="black" stroke-width="2"></path><path d="M90 208L82 208" fill="transparent" stroke="black" stroke-width="2"></path><path d="M90 134L82 134" fill="transparent" stroke="black" stroke-width="2"></path><path d="M90 60L82 60" fill="transparent" stroke="black" stroke-width="2"></path><path d="M90 430L90 438" fill="transparent" stroke="black" stroke-width="2"></path><path d="M162 430L162 438" fill="transparent" stroke="black" stroke-width="2"></path><path d="M234 430L234 438" fill="transparent" stroke="black" stroke-width="2"></path><path d="M306 430L306 438" fill="transparent" stroke="black" stroke-width="2"></path><path d="M378 430L378 438" fill="transparent" stroke="black" stroke-width="2"></path><path d="M450 430L450 438" fill="transparent" stroke="black" stroke-width="2"></path><path d="M522 430L522 438" fill="transparent" stroke="black" stroke-width="2"></path><path d="M594 430L594 438" fill="transparent" stroke="black" stroke-width="2"></path><path d="M666 430L666 438" fill="transparent" stroke="black" stroke-width="2"></path><path d="M738 430L738 438" fill="transparent" stroke="black" stroke-width="2"></path><path d="M810 430L810 438" fill="transparent" stroke="black" stroke-width="2"></path><text dominant-baseline="central" text-anchor="end" transform="translate(75 430)" fill="black" style="font-size: 20px; font-family: Arial;">0</text><text dominant-baseline="central" text-anchor="end" transform="translate(75 356)" fill="black" style="font-size: 20px; font-family: Arial;">0.2</text><text dominant-baseline="central" text-anchor="end" transform="translate(75 282)" fill="black" style="font-size: 20px; font-family: Arial;">0.4</text><text dominant-baseline="central" text-anchor="end" transform="translate(75 208)" fill="black" style="font-size: 20px; font-family: Arial;">0.6</text><text dominant-baseline="central" text-anchor="end" transform="translate(75 134)" fill="black" style="font-size: 20px; font-family: Arial;">0.8</text><text dominant-baseline="central" text-anchor="end" transform="translate(75 60)" fill="black" style="font-size: 20px; font-family: Arial;">1</text><text dominant-baseline="central" text-anchor="start" xml:space="preserve" y="-5" transform="matrix(0.966,0.259,-0.259,0.966,126,445)" fill="black" style="font-size: 10px; font-family: Arial;">Cell adhesion molecu</text><text dominant-baseline="central" text-anchor="start" xml:space="preserve" y="5" transform="matrix(0.966,0.259,-0.259,0.966,126,445)" fill="black" style="font-size: 10px; font-family: Arial;">le binding</text><text dominant-baseline="central" text-anchor="start" xml:space="preserve" transform="matrix(0.966,0.259,-0.259,0.966,198,445)" fill="black" style="font-size: 10px; font-family: Arial;">Protein binding</text><text dominant-baseline="central" text-anchor="start" xml:space="preserve" y="-5" transform="matrix(0.966,0.259,-0.259,0.966,270,445)" fill="black" style="font-size: 10px; font-family: Arial;">Cell adhesion mediat</text><text dominant-baseline="central" text-anchor="start" xml:space="preserve" y="5" transform="matrix(0.966,0.259,-0.259,0.966,270,445)" fill="black" style="font-size: 10px; font-family: Arial;">or activity</text><text dominant-baseline="central" text-anchor="start" xml:space="preserve" y="-5" transform="matrix(0.966,0.259,-0.259,0.966,342,445)" fill="black" style="font-size: 10px; font-family: Arial;">Cell-cell adhesion m</text><text dominant-baseline="central" text-anchor="start" xml:space="preserve" y="5" transform="matrix(0.966,0.259,-0.259,0.966,342,445)" fill="black" style="font-size: 10px; font-family: Arial;">ediator activity</text><text dominant-baseline="central" text-anchor="start" xml:space="preserve" y="-5" transform="matrix(0.966,0.259,-0.259,0.966,414,445)" fill="black" style="font-size: 10px; font-family: Arial;">Atpase regulator act</text><text dominant-baseline="central" text-anchor="start" y="5" transform="matrix(0.966,0.259,-0.259,0.966,414,445)" fill="black" style="font-size: 10px; font-family: Arial;">ivity</text><text dominant-baseline="central" text-anchor="start" xml:space="preserve" y="-5" transform="matrix(0.966,0.259,-0.259,0.966,486,445)" fill="black" style="font-size: 10px; font-family: Arial;">Atpase activator act</text><text dominant-baseline="central" text-anchor="start" y="5" transform="matrix(0.966,0.259,-0.259,0.966,486,445)" fill="black" style="font-size: 10px; font-family: Arial;">ivity</text><text dominant-baseline="central" text-anchor="start" xml:space="preserve" y="-10" transform="matrix(0.966,0.259,-0.259,0.966,558,445)" fill="black" style="font-size: 10px; font-family: Arial;">Protein binding invo</text><text dominant-baseline="central" text-anchor="start" xml:space="preserve" transform="matrix(0.966,0.259,-0.259,0.966,558,445)" fill="black" style="font-size: 10px; font-family: Arial;">lved in heterotypic </text><text dominant-baseline="central" text-anchor="start" xml:space="preserve" y="10" transform="matrix(0.966,0.259,-0.259,0.966,558,445)" fill="black" style="font-size: 10px; font-family: Arial;">cell-cell adhesion</text><text dominant-baseline="central" text-anchor="start" transform="matrix(0.966,0.259,-0.259,0.966,630,445)" fill="black" style="font-size: 10px; font-family: Arial;">Binding</text><text dominant-baseline="central" text-anchor="start" xml:space="preserve" y="-10" transform="matrix(0.966,0.259,-0.259,0.966,702,445)" fill="black" style="font-size: 10px; font-family: Arial;">Metal ion transmembr</text><text dominant-baseline="central" text-anchor="start" xml:space="preserve" transform="matrix(0.966,0.259,-0.259,0.966,702,445)" fill="black" style="font-size: 10px; font-family: Arial;">ane transporter acti</text><text dominant-baseline="central" text-anchor="start" y="10" transform="matrix(0.966,0.259,-0.259,0.966,702,445)" fill="black" style="font-size: 10px; font-family: Arial;">vity</text><text dominant-baseline="central" text-anchor="start" xml:space="preserve" transform="matrix(0.966,0.259,-0.259,0.966,774,445)" fill="black" style="font-size: 10px; font-family: Arial;">Transporter activity</text><path d="M104.4 430l43.2 0l0 -333l-43.2 0Z" fill="#4E2A5C"></path><path d="M176.4 430l43.2 0l0 -351.5l-43.2 0Z" fill="#4E2A5C"></path><path d="M248.4 430l43.2 0l0 -339.1667l-43.2 0Z" fill="#4E2A5C"></path><path d="M320.4 430l43.2 0l0 -336.3636l-43.2 0Z" fill="#4E2A5C"></path><path d="M392.4 430l43.2 0l0 -333l-43.2 0Z" fill="#4E2A5C"></path><path d="M464.4 430l43.2 0l0 -328.8889l-43.2 0Z" fill="#4E2A5C"></path><path d="M536.4 430l43.2 0l0 -308.3333l-43.2 0Z" fill="#4E2A5C"></path><path d="M608.4 430l43.2 0l0 -345.0562l-43.2 0Z" fill="#4E2A5C"></path><path d="M680.4 430l43.2 0l0 -319.5455l-43.2 0Z" fill="#4E2A5C"></path><path d="M752.4 430l43.2 0l0 -313.0769l-43.2 0Z" fill="#4E2A5C"></path><path d="M104.4 97l43.2 0l0 -37l-43.2 0Z" fill="#C54E83"></path><path d="M176.4 78.5l43.2 0l0 -13.875l-43.2 0Z" fill="#C54E83"></path><path d="M248.4 90.8333l43.2 0l0 -30.8333l-43.2 0Z" fill="#C54E83"></path><path d="M320.4 93.6364l43.2 0l0 -33.6364l-43.2 0Z" fill="#C54E83"></path><path d="M392.4 97l43.2 0l0 -37l-43.2 0Z" fill="#C54E83"></path><path d="M464.4 101.1111l43.2 0l0 -41.1111l-43.2 0Z" fill="#C54E83"></path><path d="M536.4 121.6667l43.2 0l0 -61.6667l-43.2 0Z" fill="#C54E83"></path><path d="M608.4 84.9438l43.2 0l0 -12.4719l-43.2 0Z" fill="#C54E83"></path><path d="M680.4 110.4545l43.2 0l0 -16.8182l-43.2 0Z" fill="#C54E83"></path><path d="M752.4 116.9231l43.2 0l0 -28.4615l-43.2 0Z" fill="#C54E83"></path><path d="M104.4 60l43.2 0l0 0l-43.2 0Z" fill="#4EBABC"></path><path d="M176.4 64.625l43.2 0l0 -4.625l-43.2 0Z" fill="#4EBABC"></path><path d="M248.4 60l43.2 0l0 0l-43.2 0Z" fill="#4EBABC"></path><path d="M320.4 60l43.2 0l0 0l-43.2 0Z" fill="#4EBABC"></path><path d="M392.4 60l43.2 0l0 0l-43.2 0Z" fill="#4EBABC"></path><path d="M464.4 60l43.2 0l0 0l-43.2 0Z" fill="#4EBABC"></path><path d="M536.4 60l43.2 0l0 0l-43.2 0Z" fill="#4EBABC"></path><path d="M608.4 72.4719l43.2 0l0 -8.3146l-43.2 0Z" fill="#4EBABC"></path><path d="M680.4 93.6364l43.2 0l0 -16.8182l-43.2 0Z" fill="#4EBABC"></path><path d="M752.4 88.4615l43.2 0l0 -14.2308l-43.2 0Z" fill="#4EBABC"></path><path d="M104.4 60l43.2 0l0 0l-43.2 0Z" fill="#FFC599"></path><path d="M176.4 60l43.2 0l0 0l-43.2 0Z" fill="#FFC599"></path><path d="M248.4 60l43.2 0l0 0l-43.2 0Z" fill="#FFC599"></path><path d="M320.4 60l43.2 0l0 0l-43.2 0Z" fill="#FFC599"></path><path d="M392.4 60l43.2 0l0 0l-43.2 0Z" fill="#FFC599"></path><path d="M464.4 60l43.2 0l0 0l-43.2 0Z" fill="#FFC599"></path><path d="M536.4 60l43.2 0l0 0l-43.2 0Z" fill="#FFC599"></path><path d="M608.4 64.1573l43.2 0l0 -4.1573l-43.2 0Z" fill="#FFC599"></path><path d="M680.4 76.8182l43.2 0l0 -16.8182l-43.2 0Z" fill="#FFC599"></path><path d="M752.4 74.2308l43.2 0l0 -14.2308l-43.2 0Z" fill="#FFC599"></path><path d="M-5 -5l204 0l0 30l-204 0Z" transform="translate(353 5)" fill="transparent" stroke="#ccc" stroke-width="0"></path><path d="M3.5 0L21.5 0A3.5 3.5 0 0 1 25 3.5L25 10.5A3.5 3.5 0 0 1 21.5 14L3.5 14A3.5 3.5 0 0 1 0 10.5L0 3.5A3.5 3.5 0 0 1 3.5 0" transform="translate(353 8)" fill="#4E2A5C"></path><text dominant-baseline="central" text-anchor="start" x="30" y="7" transform="translate(353 8)" fill="#333" style="font-size: 20px; font-family: Arial;">0</text><path d="M0 -3l41 0l0 20l-41 0Z" transform="translate(353 8)" fill="transparent"></path><path d="M3.5 0L21.5 0A3.5 3.5 0 0 1 25 3.5L25 10.5A3.5 3.5 0 0 1 21.5 14L3.5 14A3.5 3.5 0 0 1 0 10.5L0 3.5A3.5 3.5 0 0 1 3.5 0" transform="translate(404 8)" fill="#C54E83"></path><text dominant-baseline="central" text-anchor="start" x="30" y="7" transform="translate(404 8)" fill="#333" style="font-size: 20px; font-family: Arial;">1</text><path d="M0 -3l41 0l0 20l-41 0Z" transform="translate(404 8)" fill="transparent"></path><path d="M3.5 0L21.5 0A3.5 3.5 0 0 1 25 3.5L25 10.5A3.5 3.5 0 0 1 21.5 14L3.5 14A3.5 3.5 0 0 1 0 10.5L0 3.5A3.5 3.5 0 0 1 3.5 0" transform="translate(455 8)" fill="#4EBABC"></path><text dominant-baseline="central" text-anchor="start" x="30" y="7" transform="translate(455 8)" fill="#333" style="font-size: 20px; font-family: Arial;">2</text><path d="M0 -3l41 0l0 20l-41 0Z" transform="translate(455 8)" fill="transparent"></path><path d="M3.5 0L21.5 0A3.5 3.5 0 0 1 25 3.5L25 10.5A3.5 3.5 0 0 1 21.5 14L3.5 14A3.5 3.5 0 0 1 0 10.5L0 3.5A3.5 3.5 0 0 1 3.5 0" transform="translate(506 8)" fill="#FFC599"></path><text dominant-baseline="central" text-anchor="start" x="30" y="7" transform="translate(506 8)" fill="#333" style="font-size: 20px; font-family: Arial;">3</text><path d="M0 -3l41 0l0 20l-41 0Z" transform="translate(506 8)" fill="transparent"></path><path d="M-5 -5l10 0l0 10l-10 0Z" transform="translate(450 5)" fill="rgb(0,0,0)" fill-opacity="0" stroke="#ccc" stroke-width="0"></path></g></svg>
