<svg xmlns="http://www.w3.org/2000/svg" xmlns:xlink="http://www.w3.org/1999/xlink" version="1.1" baseProfile="full" width="900" height="500" style="position: absolute; left: 0px; top: 0px;"><rect width="900" height="500" x="0" y="0" fill="#fff"></rect><g><path d="M480 250A30 30 0 1 1 480 249.997M450 250A0 0 0 1 0 450 250M510 250A60 60 0 1 1 510 249.994M480 250A30 30 0 1 0 480 250.003M540 250A90 90 0 1 1 540 249.991M510 250A60 60 0 1 0 510 250.006M570 250A120 120 0 1 1 570 249.988M540 250A90 90 0 1 0 540 250.009M600 250A150 150 0 1 1 600 249.985M570 250A120 120 0 1 0 570 250.012" fill="url(#zr0-g0)" fill-opacity="0.2"></path><path d="M450 250A0 0 0 1 1 450 250M480 250A30 30 0 1 1 480 249.997M510 250A60 60 0 1 1 510 249.994M540 250A90 90 0 1 1 540 249.991M570 250A120 120 0 1 1 570 249.988M600 250A150 150 0 1 1 600 249.985" fill="transparent" stroke="#001F78" stroke-width="3" stroke-opacity="0.5" stroke-dasharray="12,6"></path><path d="M450 250L450 100" fill="transparent" stroke="grey" stroke-width="2" stroke-opacity="0.3" stroke-linecap="round"></path><text dominant-baseline="central" text-anchor="middle" xml:space="preserve" y="-40" transform="translate(450 85)" fill="black" style="font-size: 15px; font-family: Arial; font-weight: bold;">Plasma membrane</text><text dominant-baseline="central" text-anchor="middle" xml:space="preserve" y="-24" transform="translate(450 85)" fill="black" style="font-size: 15px; font-family: Arial; font-weight: bold;"> signaling rece</text><text dominant-baseline="central" text-anchor="middle" xml:space="preserve" y="-8" transform="translate(450 85)" fill="black" style="font-size: 15px; font-family: Arial; font-weight: bold;">ptor complex</text><path d="M450 250L353.5819 135.0933" fill="transparent" stroke="grey" stroke-width="2" stroke-opacity="0.3" stroke-linecap="round"></path><text dominant-baseline="central" text-anchor="end" xml:space="preserve" y="-8" transform="translate(343.94 123.6027)" fill="black" style="font-size: 15px; font-family: Arial; font-weight: bold;">Monoatomic ion </text><text dominant-baseline="central" text-anchor="end" xml:space="preserve" y="8" transform="translate(343.94 123.6027)" fill="black" style="font-size: 15px; font-family: Arial; font-weight: bold;">channel complex</text><path d="M450 250L302.2788 223.9528" fill="transparent" stroke="grey" stroke-width="2" stroke-opacity="0.3" stroke-linecap="round"></path><text dominant-baseline="central" text-anchor="end" xml:space="preserve" y="-16" transform="translate(287.5067 221.3481)" fill="black" style="font-size: 15px; font-family: Arial; font-weight: bold;">Ionotropic glut</text><text dominant-baseline="central" text-anchor="end" xml:space="preserve" transform="translate(287.5067 221.3481)" fill="black" style="font-size: 15px; font-family: Arial; font-weight: bold;">amate receptor </text><text dominant-baseline="central" text-anchor="end" y="16" transform="translate(287.5067 221.3481)" fill="black" style="font-size: 15px; font-family: Arial; font-weight: bold;">complex</text><path d="M450 250L320.0962 325" fill="transparent" stroke="grey" stroke-width="2" stroke-opacity="0.3" stroke-linecap="round"></path><text dominant-baseline="central" text-anchor="end" y="-16" transform="translate(307.1058 332.5)" fill="black" style="font-size: 15px; font-family: Arial; font-weight: bold;">Neurotransmitte</text><text dominant-baseline="central" text-anchor="end" xml:space="preserve" transform="translate(307.1058 332.5)" fill="black" style="font-size: 15px; font-family: Arial; font-weight: bold;">r receptor comp</text><text dominant-baseline="central" text-anchor="end" y="16" transform="translate(307.1058 332.5)" fill="black" style="font-size: 15px; font-family: Arial; font-weight: bold;">lex</text><path d="M450 250L398.697 390.9539" fill="transparent" stroke="grey" stroke-width="2" stroke-opacity="0.3" stroke-linecap="round"></path><text dominant-baseline="central" text-anchor="end" xml:space="preserve" transform="translate(393.5667 405.0493)" fill="black" style="font-size: 15px; font-family: Arial; font-weight: bold;">Axon terminus</text><path d="M450 250L501.303 390.9539" fill="transparent" stroke="grey" stroke-width="2" stroke-opacity="0.3" stroke-linecap="round"></path><text dominant-baseline="central" text-anchor="start" xml:space="preserve" y="-8" transform="translate(506.4333 405.0493)" fill="black" style="font-size: 15px; font-family: Arial; font-weight: bold;">Semaphorin rece</text><text dominant-baseline="central" text-anchor="start" xml:space="preserve" y="8" transform="translate(506.4333 405.0493)" fill="black" style="font-size: 15px; font-family: Arial; font-weight: bold;">ptor complex</text><path d="M450 250L579.9038 325" fill="transparent" stroke="grey" stroke-width="2" stroke-opacity="0.3" stroke-linecap="round"></path><text dominant-baseline="central" text-anchor="start" xml:space="preserve" transform="translate(592.8942 332.5)" fill="black" style="font-size: 15px; font-family: Arial; font-weight: bold;">Terminal bouton</text><path d="M450 250L597.7212 223.9528" fill="transparent" stroke="grey" stroke-width="2" stroke-opacity="0.3" stroke-linecap="round"></path><text dominant-baseline="central" text-anchor="start" transform="translate(612.4933 221.3481)" fill="black" style="font-size: 15px; font-family: Arial; font-weight: bold;">Perikaryon</text><path d="M450 250L546.4181 135.0933" fill="transparent" stroke="grey" stroke-width="2" stroke-opacity="0.3" stroke-linecap="round"></path><text dominant-baseline="central" text-anchor="start" xml:space="preserve" y="-8" transform="translate(556.06 123.6027)" fill="black" style="font-size: 15px; font-family: Arial; font-weight: bold;">Axonal growth c</text><text dominant-baseline="central" text-anchor="start" y="8" transform="translate(556.06 123.6027)" fill="black" style="font-size: 15px; font-family: Arial; font-weight: bold;">one</text><path d="M450 250L415.798 343.9693L450 250L597.7212 223.9528L546.4181 135.0933L450 250" fill="transparent" stroke="#bd221f" stroke-width="3" stroke-linejoin="round"></path><path d="M450 250L415.798 343.9693L450 250L597.7212 223.9528L546.4181 135.0933L450 250Z" fill="#bd221f" fill-opacity="0.5"></path><path d="M450 250L546.4181 135.0933L450 250" fill="transparent" stroke="#099eda" stroke-width="3" stroke-linejoin="round"></path><path d="M450 250L546.4181 135.0933L450 250Z" fill="#099eda" fill-opacity="0.5"></path><path d="M450 150L385.7212 173.3956L302.2788 223.9528L320.0962 325L415.798 343.9693L450 250L579.9038 325L597.7212 223.9528L450 250L450 150" fill="transparent" stroke="#fee301" stroke-width="3" stroke-linejoin="round"></path><path d="M450 150L385.7212 173.3956L302.2788 223.9528L320.0962 325L415.798 343.9693L450 250L579.9038 325L597.7212 223.9528L450 250L450 150Z" fill="#fee301" fill-opacity="0.5"></path><path d="M450 150L450 250L450 150" fill="transparent" stroke="#abb7bd" stroke-width="3" stroke-linejoin="round"></path><path d="M450 150L450 250L450 150Z" fill="#abb7bd" fill-opacity="0.5"></path><path d="M450 250L501.303 390.9539L450 250" fill="transparent" stroke="#A07EBA" stroke-width="3" stroke-linejoin="round"></path><path d="M450 250L501.303 390.9539L450 250Z" fill="#A07EBA" fill-opacity="0.5"></path><path d="M450 150L385.7212 173.3956L302.2788 223.9528L320.0962 325L415.798 343.9693L450 250L579.9038 325L450 250L450 150" fill="transparent" stroke="#293a6e" stroke-width="3" stroke-linejoin="round"></path><path d="M450 150L385.7212 173.3956L302.2788 223.9528L320.0962 325L415.798 343.9693L450 250L579.9038 325L450 250L450 150Z" fill="#293a6e" fill-opacity="0.5"></path><path d="M450 250L385.7212 173.3956L450 250" fill="transparent" stroke="#d6c223" stroke-width="3" stroke-linejoin="round"></path><path d="M450 250L385.7212 173.3956L450 250Z" fill="#d6c223" fill-opacity="0.5"></path><path d="M450 250L501.303 390.9539L450 250" fill="transparent" stroke="#6ebb53" stroke-width="3" stroke-linejoin="round"></path><path d="M450 250L501.303 390.9539L450 250Z" fill="#6ebb53" fill-opacity="0.5"></path><path d="M-5 -5l435 0l0 168l-435 0Z" transform="translate(237.5 5)" fill="transparent" stroke="#ccc" stroke-width="0"></path><path d="M3.5 0L21.5 0A3.5 3.5 0 0 1 25 3.5L25 10.5A3.5 3.5 0 0 1 21.5 14L3.5 14A3.5 3.5 0 0 1 0 10.5L0 3.5A3.5 3.5 0 0 1 3.5 0" transform="translate(237.5 5)" fill="#bd221f"></path><text dominant-baseline="central" text-anchor="start" x="30" y="7" transform="translate(237.5 5)" fill="#333" style="font-size: 12px; font-family: Arial;">A2B2C1D1E2F1fedD2dD1E2F5fedcbB5ba</text><path d="M0 0l264 0l0 14l-264 0Z" transform="translate(237.5 5)" fill="transparent"></path><path d="M3.5 0L21.5 0A3.5 3.5 0 0 1 25 3.5L25 10.5A3.5 3.5 0 0 1 21.5 14L3.5 14A3.5 3.5 0 0 1 0 10.5L0 3.5A3.5 3.5 0 0 1 3.5 0" transform="translate(237.5 29)" fill="#099eda"></path><text dominant-baseline="central" text-anchor="start" x="30" y="7" transform="translate(237.5 29)" fill="#333" style="font-size: 12px; font-family: Arial;">A2B2C1D1E2edD2dD1E2edcbB5ba</text><path d="M0 0l230 0l0 14l-230 0Z" transform="translate(237.5 29)" fill="transparent"></path><path d="M3.5 0L21.5 0A3.5 3.5 0 0 1 25 3.5L25 10.5A3.5 3.5 0 0 1 21.5 14L3.5 14A3.5 3.5 0 0 1 0 10.5L0 3.5A3.5 3.5 0 0 1 3.5 0" transform="translate(237.5 53)" fill="#fee301"></path><text dominant-baseline="central" text-anchor="start" x="30" y="7" transform="translate(237.5 53)" fill="#333" style="font-size: 12px; font-family: Arial;">A2B2C1D1E2edD1E2edcbB5ba</text><path d="M0 0l207 0l0 14l-207 0Z" transform="translate(237.5 53)" fill="transparent"></path><path d="M3.5 0L21.5 0A3.5 3.5 0 0 1 25 3.5L25 10.5A3.5 3.5 0 0 1 21.5 14L3.5 14A3.5 3.5 0 0 1 0 10.5L0 3.5A3.5 3.5 0 0 1 3.5 0" transform="translate(454.5 53)" fill="#abb7bd"></path><text dominant-baseline="central" text-anchor="start" x="30" y="7" transform="translate(454.5 53)" fill="#333" style="font-size: 12px; font-family: Arial;">A2B2C1D1dD1E2edD2dcbB5ba</text><path d="M0 0l208 0l0 14l-208 0Z" transform="translate(454.5 53)" fill="transparent"></path><path d="M3.5 0L21.5 0A3.5 3.5 0 0 1 25 3.5L25 10.5A3.5 3.5 0 0 1 21.5 14L3.5 14A3.5 3.5 0 0 1 0 10.5L0 3.5A3.5 3.5 0 0 1 3.5 0" transform="translate(237.5 77)" fill="#A07EBA"></path><text dominant-baseline="central" text-anchor="start" x="30" y="7" transform="translate(237.5 77)" fill="#333" style="font-size: 12px; font-family: Arial;">A2B2C1D1dD1E2eE2edD2dcbB5ba</text><path d="M0 0l230 0l0 14l-230 0Z" transform="translate(237.5 77)" fill="transparent"></path><path d="M3.5 0L21.5 0A3.5 3.5 0 0 1 25 3.5L25 10.5A3.5 3.5 0 0 1 21.5 14L3.5 14A3.5 3.5 0 0 1 0 10.5L0 3.5A3.5 3.5 0 0 1 3.5 0" transform="translate(237.5 101)" fill="#293a6e"></path><text dominant-baseline="central" text-anchor="start" x="30" y="7" transform="translate(237.5 101)" fill="#333" style="font-size: 12px; font-family: Arial;">A2B2C1D1E2edD2dD1E1eE1edcbB5ba</text><path d="M0 0l252 0l0 14l-252 0Z" transform="translate(237.5 101)" fill="transparent"></path><path d="M3.5 0L21.5 0A3.5 3.5 0 0 1 25 3.5L25 10.5A3.5 3.5 0 0 1 21.5 14L3.5 14A3.5 3.5 0 0 1 0 10.5L0 3.5A3.5 3.5 0 0 1 3.5 0" transform="translate(237.5 125)" fill="#d6c223"></path><text dominant-baseline="central" text-anchor="start" x="30" y="7" transform="translate(237.5 125)" fill="#333" style="font-size: 12px; font-family: Arial;">A2B2C1D1dD1E2F1G5gfedcba</text><path d="M0 0l203 0l0 14l-203 0Z" transform="translate(237.5 125)" fill="transparent"></path><path d="M3.5 0L21.5 0A3.5 3.5 0 0 1 25 3.5L25 10.5A3.5 3.5 0 0 1 21.5 14L3.5 14A3.5 3.5 0 0 1 0 10.5L0 3.5A3.5 3.5 0 0 1 3.5 0" transform="translate(237.5 149)" fill="#6ebb53"></path><text dominant-baseline="central" text-anchor="start" x="30" y="7" transform="translate(237.5 149)" fill="#333" style="font-size: 12px; font-family: Arial;">A2B2C1D1E1edD2dD1E2F1fedcbB5ba</text><path d="M0 0l247 0l0 14l-247 0Z" transform="translate(237.5 149)" fill="transparent"></path><path d="M-5 -5l10 0l0 10l-10 0Z" transform="translate(450 5)" fill="rgb(0,0,0)" fill-opacity="0" stroke="#ccc" stroke-width="0"></path></g><defs><radialGradient gradientUnits="objectBoundingBox" cx="0.5" cy="0.5" r="0.5" id="zr0-g0"><stop offset="0%" stop-color="white"></stop><stop offset="100%" stop-color="white"></stop></radialGradient></defs></svg>
