<svg xmlns="http://www.w3.org/2000/svg" xmlns:xlink="http://www.w3.org/1999/xlink" version="1.1" baseProfile="full" width="900" height="500" style="position: absolute; left: 0px; top: 0px;"><rect width="900" height="500" x="0" y="0" fill="#fff"></rect><g><path d="M480 250A30 30 0 1 1 480 249.997M450 250A0 0 0 1 0 450 250M510 250A60 60 0 1 1 510 249.994M480 250A30 30 0 1 0 480 250.003M540 250A90 90 0 1 1 540 249.991M510 250A60 60 0 1 0 510 250.006M570 250A120 120 0 1 1 570 249.988M540 250A90 90 0 1 0 540 250.009M600 250A150 150 0 1 1 600 249.985M570 250A120 120 0 1 0 570 250.012" fill="url(#zr0-g0)" fill-opacity="0.2"></path><path d="M450 250A0 0 0 1 1 450 250M480 250A30 30 0 1 1 480 249.997M510 250A60 60 0 1 1 510 249.994M540 250A90 90 0 1 1 540 249.991M570 250A120 120 0 1 1 570 249.988M600 250A150 150 0 1 1 600 249.985" fill="transparent" stroke="#001F78" stroke-width="3" stroke-opacity="0.5" stroke-dasharray="12,6"></path><path d="M450 250L450 100" fill="transparent" stroke="grey" stroke-width="2" stroke-opacity="0.3" stroke-linecap="round"></path><text dominant-baseline="central" text-anchor="middle" y="-8" transform="translate(450 85)" fill="black" style="font-size: 15px; font-family: Arial; font-weight: bold;">Membrane</text><path d="M450 250L343.934 143.934" fill="transparent" stroke="grey" stroke-width="2" stroke-opacity="0.3" stroke-linecap="round"></path><text dominant-baseline="central" text-anchor="end" transform="translate(333.3274 133.3274)" fill="black" style="font-size: 15px; font-family: Arial; font-weight: bold;">Synapse</text><path d="M450 250L300 250" fill="transparent" stroke="grey" stroke-width="2" stroke-opacity="0.3" stroke-linecap="round"></path><text dominant-baseline="central" text-anchor="end" xml:space="preserve" transform="translate(285 250)" fill="black" style="font-size: 15px; font-family: Arial; font-weight: bold;">Cell junction</text><path d="M450 250L343.934 356.066" fill="transparent" stroke="grey" stroke-width="2" stroke-opacity="0.3" stroke-linecap="round"></path><text dominant-baseline="central" text-anchor="end" xml:space="preserve" transform="translate(333.3274 366.6726)" fill="black" style="font-size: 15px; font-family: Arial; font-weight: bold;">Cell periphery</text><path d="M450 250L450 400" fill="transparent" stroke="grey" stroke-width="2" stroke-opacity="0.3" stroke-linecap="round"></path><text dominant-baseline="central" text-anchor="middle" xml:space="preserve" y="8" transform="translate(450 415)" fill="black" style="font-size: 15px; font-family: Arial; font-weight: bold;">Plasma membrane</text><path d="M450 250L556.066 356.066" fill="transparent" stroke="grey" stroke-width="2" stroke-opacity="0.3" stroke-linecap="round"></path><text dominant-baseline="central" text-anchor="start" xml:space="preserve" y="-8" transform="translate(566.6726 366.6726)" fill="black" style="font-size: 15px; font-family: Arial; font-weight: bold;">Plasma membrane</text><text dominant-baseline="central" text-anchor="start" xml:space="preserve" y="8" transform="translate(566.6726 366.6726)" fill="black" style="font-size: 15px; font-family: Arial; font-weight: bold;"> region</text><path d="M450 250L600 250" fill="transparent" stroke="grey" stroke-width="2" stroke-opacity="0.3" stroke-linecap="round"></path><text dominant-baseline="central" text-anchor="start" transform="translate(615 250)" fill="black" style="font-size: 15px; font-family: Arial; font-weight: bold;">Presynapse</text><path d="M450 250L556.066 143.934" fill="transparent" stroke="grey" stroke-width="2" stroke-opacity="0.3" stroke-linecap="round"></path><text dominant-baseline="central" text-anchor="start" xml:space="preserve" y="-8" transform="translate(566.6726 133.3274)" fill="black" style="font-size: 15px; font-family: Arial; font-weight: bold;">Cellular anatom</text><text dominant-baseline="central" text-anchor="start" xml:space="preserve" y="8" transform="translate(566.6726 133.3274)" fill="black" style="font-size: 15px; font-family: Arial; font-weight: bold;">ical structure</text><path d="M450 113.7613L355.3295 155.3295L315.6947 250L353.9898 346.0102L450 385.7055L543.9715 343.9715L578.2491 250L546.4237 153.5763L450 113.7613" fill="transparent" stroke="#bd221f" stroke-width="3" stroke-linejoin="round"></path><path d="M450 113.7613L355.3295 155.3295L315.6947 250L353.9898 346.0102L450 385.7055L543.9715 343.9715L578.2491 250L546.4237 153.5763L450 113.7613Z" fill="#bd221f" fill-opacity="0.5"></path><path d="M450 247.3022L446.4275 246.4275L445.3688 250L447.7672 252.2328L450 253.2311L454.2714 254.2714L460.6874 250L451.8193 248.1807L450 247.3022" fill="transparent" stroke="#099eda" stroke-width="3" stroke-linejoin="round"></path><path d="M450 247.3022L446.4275 246.4275L445.3688 250L447.7672 252.2328L450 253.2311L454.2714 254.2714L460.6874 250L451.8193 248.1807L450 247.3022Z" fill="#099eda" fill-opacity="0.5"></path><path d="M-5 -5l94 0l0 24l-94 0Z" transform="translate(408 5)" fill="transparent" stroke="#ccc" stroke-width="0"></path><path d="M3.5 0L21.5 0A3.5 3.5 0 0 1 25 3.5L25 10.5A3.5 3.5 0 0 1 21.5 14L3.5 14A3.5 3.5 0 0 1 0 10.5L0 3.5A3.5 3.5 0 0 1 3.5 0" transform="translate(408 5)" fill="#bd221f"></path><text dominant-baseline="central" text-anchor="start" x="30" y="7" transform="translate(408 5)" fill="#333" style="font-size: 12px; font-family: Arial;">0</text><path d="M0 0l37 0l0 14l-37 0Z" transform="translate(408 5)" fill="transparent"></path><path d="M3.5 0L21.5 0A3.5 3.5 0 0 1 25 3.5L25 10.5A3.5 3.5 0 0 1 21.5 14L3.5 14A3.5 3.5 0 0 1 0 10.5L0 3.5A3.5 3.5 0 0 1 3.5 0" transform="translate(455 5)" fill="#099eda"></path><text dominant-baseline="central" text-anchor="start" x="30" y="7" transform="translate(455 5)" fill="#333" style="font-size: 12px; font-family: Arial;">1</text><path d="M0 0l37 0l0 14l-37 0Z" transform="translate(455 5)" fill="transparent"></path><path d="M-5 -5l10 0l0 10l-10 0Z" transform="translate(450 5)" fill="rgb(0,0,0)" fill-opacity="0" stroke="#ccc" stroke-width="0"></path></g><defs><radialGradient gradientUnits="objectBoundingBox" cx="0.5" cy="0.5" r="0.5" id="zr0-g0"><stop offset="0%" stop-color="white"></stop><stop offset="100%" stop-color="white"></stop></radialGradient></defs></svg>
